<?xml version="1.0" encoding="utf-8"?>
<!-- Generator: Adobe Illustrator 21.0.0, SVG Export Plug-In . SVG Version: 6.00 Build 0)  -->
<svg version="1.1" id="Layer_1" xmlns="http://www.w3.org/2000/svg" xmlns:xlink="http://www.w3.org/1999/xlink" x="0px" y="0px"
	 viewBox="0 0 353.7 353.7" style="enable-background:new 0 0 353.7 353.7;" xml:space="preserve">
<style type="text/css">
	.st0{fill:#FFFFFF;}
	.st1{fill:#231F20;}
	.st2{fill:#009ADA;}
	.st3{fill-rule:evenodd;clip-rule:evenodd;fill:#FDB913;}
</style>
<circle class="st0" cx="176.9" cy="176.9" r="176.9"/>
<g>
	<g>
		<g>
			<path class="st1" d="M80.3,182.4h-4.2v-2.1h10.7v2.1h-4.2v11h-2.3V182.4z"/>
			<path class="st1" d="M91.8,180.3h2.3v5.5h6.3v-5.5h2.3v13.1h-2.3v-5.5h-6.3v5.5h-2.3V180.3z"/>
			<path class="st1" d="M108.7,180.3h9.7v2.1H111v3.4h6.6v2.1H111v3.5h7.5v2.1h-9.8V180.3z"/>
		</g>
	</g>
	<g>
		<path class="st1" d="M39.5,253.2L39.5,253.2c0-3.7,2.8-6.8,6.9-6.8c4,0,6.8,3.1,6.8,6.8v0c0,3.7-2.8,6.8-6.9,6.8
			C42.3,260,39.5,256.9,39.5,253.2z M50.8,253.2L50.8,253.2c0-2.6-1.9-4.7-4.5-4.7c-2.6,0-4.4,2.1-4.4,4.6v0c0,2.6,1.9,4.7,4.5,4.7
			C49,257.8,50.8,255.8,50.8,253.2z"/>
		<path class="st1" d="M58.4,246.6h9.8v2.1h-7.5v3.6h6.6v2.1h-6.6v5.3h-2.3V246.6z"/>
		<path class="st1" d="M80.2,246.6h2.5l3.1,9.7l3.2-9.8H91l3.2,9.8l3.1-9.7h2.4l-4.6,13.2h-2l-3.2-9.4l-3.2,9.4h-2L80.2,246.6z"/>
		<path class="st1" d="M107.5,246.5h2.1l5.8,13.2H113l-1.3-3.2h-6.2l-1.3,3.2h-2.4L107.5,246.5z M110.8,254.5l-2.3-5.3l-2.2,5.3
			H110.8z"/>
		<path class="st1" d="M121.6,248.7h-4.2v-2.1h10.7v2.1h-4.2v11h-2.3V248.7z"/>
		<path class="st1" d="M133,246.6h9.7v2.1h-7.4v3.4h6.6v2.1h-6.6v3.5h7.5v2.1H133V246.6z"/>
		<path class="st1" d="M147.9,246.6h5.9c1.7,0,2.9,0.5,3.8,1.3c0.7,0.7,1.1,1.7,1.1,2.8v0c0,2.2-1.3,3.5-3.1,4l3.5,5h-2.7l-3.2-4.6
			h0h-2.8v4.6h-2.3V246.6z M153.6,253.1c1.7,0,2.7-0.9,2.7-2.2v0c0-1.4-1-2.2-2.7-2.2h-3.4v4.4H153.6z"/>
		<path class="st1" d="M163.9,246.6h2.3v11h6.9v2.1h-9.2V246.6z"/>
		<path class="st1" d="M176.6,253.2L176.6,253.2c0-3.7,2.9-6.8,6.9-6.8c4,0,6.8,3.1,6.8,6.8v0c0,3.7-2.9,6.8-6.9,6.8
			C179.4,260,176.6,256.9,176.6,253.2z M187.9,253.2L187.9,253.2c0-2.6-1.9-4.7-4.5-4.7c-2.6,0-4.4,2.1-4.4,4.6v0
			c0,2.6,1.9,4.7,4.5,4.7S187.9,255.8,187.9,253.2z"/>
		<path class="st1" d="M195,253.2L195,253.2c0-3.7,2.9-6.8,6.9-6.8c4,0,6.8,3.1,6.8,6.8v0c0,3.7-2.8,6.8-6.9,6.8
			C197.8,260,195,256.9,195,253.2z M206.3,253.2L206.3,253.2c0-2.6-1.9-4.7-4.5-4.7c-2.6,0-4.4,2.1-4.4,4.6v0c0,2.6,1.9,4.7,4.5,4.7
			C204.5,257.8,206.3,255.8,206.3,253.2z"/>
		<path class="st1" d="M222,246.6h5.9c1.7,0,2.9,0.5,3.8,1.3c0.7,0.7,1.1,1.7,1.1,2.8v0c0,2.2-1.3,3.5-3.1,4l3.5,5h-2.7l-3.2-4.6h0
			h-2.8v4.6H222V246.6z M227.6,253.1c1.7,0,2.7-0.9,2.7-2.2v0c0-1.4-1-2.2-2.7-2.2h-3.4v4.4H227.6z"/>
		<path class="st1" d="M237.9,246.6h9.7v2.1h-7.4v3.4h6.6v2.1h-6.6v3.5h7.5v2.1h-9.8V246.6z"/>
		<path class="st1" d="M252.3,253.2L252.3,253.2c0-3.7,2.8-6.8,6.8-6.8c2.3,0,3.7,0.6,5,1.8l-1.5,1.7c-1-0.9-2-1.4-3.7-1.4
			c-2.4,0-4.3,2.1-4.3,4.6v0c0,2.7,1.8,4.7,4.5,4.7c1.2,0,2.4-0.4,3.2-1v-2.5H259v-2h5.6v5.5c-1.3,1.1-3.2,2-5.5,2
			C255,260,252.3,257,252.3,253.2z"/>
		<path class="st1" d="M270.2,246.6h2.3v13.1h-2.3V246.6z"/>
		<path class="st1" d="M277.8,253.2L277.8,253.2c0-3.7,2.8-6.8,6.9-6.8c4,0,6.8,3.1,6.8,6.8v0c0,3.7-2.8,6.8-6.9,6.8
			C280.6,260,277.8,256.9,277.8,253.2z M289.1,253.2L289.1,253.2c0-2.6-1.9-4.7-4.5-4.7c-2.6,0-4.4,2.1-4.4,4.6v0
			c0,2.6,1.9,4.7,4.5,4.7S289.1,255.8,289.1,253.2z"/>
		<path class="st1" d="M296.8,246.6h2.1l7,9.1v-9.1h2.3v13.1h-1.9l-7.2-9.3v9.3h-2.3V246.6z"/>
	</g>
	<g>
		<path class="st2" d="M40.3,195.5h29.9v7.9H49v8.4h18.7v7.9H49v15.2h-8.6V195.5z"/>
		<path class="st2" d="M71.7,219.9v-0.1c0-8.6,7-15.7,16.3-15.7c9.3,0,16.2,6.9,16.2,15.5v0.1c0,8.6-7,15.7-16.3,15.7
			C78.6,235.4,71.7,228.5,71.7,219.9z M95.8,219.9v-0.1c0-4.4-3.2-8.3-7.9-8.3c-4.9,0-7.8,3.8-7.8,8.2v0.1c0,4.4,3.2,8.3,7.9,8.3
			C92.9,228.1,95.8,224.3,95.8,219.9z"/>
		<path class="st2" d="M106.8,219.9v-0.1c0-8.6,7-15.7,16.3-15.7c9.3,0,16.2,6.9,16.2,15.5v0.1c0,8.6-7,15.7-16.3,15.7
			C113.7,235.4,106.8,228.5,106.8,219.9z M131,219.9v-0.1c0-4.4-3.2-8.3-7.9-8.3c-4.9,0-7.8,3.8-7.8,8.2v0.1c0,4.4,3.2,8.3,7.9,8.3
			C128,228.1,131,224.3,131,219.9z"/>
		<path class="st2" d="M142.3,219.8v-0.1c0-10,6.6-15.5,13.7-15.5c4.5,0,7.4,2.1,9.4,4.5v-14.8h8.5v41h-8.5v-4.3
			c-2.1,2.8-4.9,4.9-9.4,4.9C149,235.3,142.3,229.8,142.3,219.8z M165.5,219.8v-0.1c0-5-3.3-8.3-7.3-8.3c-4,0-7.4,3.3-7.4,8.3v0.1
			c0,5,3.4,8.3,7.4,8.3C162.2,228.1,165.5,224.7,165.5,219.8z"/>
		<path class="st2" d="M181.2,195.5h16.7c4.5,0,8,1.3,10.3,3.5c1.6,1.7,2.5,3.8,2.5,6.3v0.1c0,5.1-3.1,7.7-6.2,9.1
			c4.7,1.4,8.4,4.1,8.4,9.5v0.1c0,6.7-5.7,10.7-14.3,10.7h-17.5V195.5z M197.2,213c5.3,0,9-2.4,9-7v-0.1c0-3.9-3.1-6.4-8.7-6.4h-12
			V213H197.2z M198.7,230.8c5.9,0,9.6-2.6,9.6-7v-0.1c0-4.3-3.6-6.7-10.4-6.7h-12.4v13.9H198.7z"/>
		<path class="st2" d="M217,226.3v-0.1c0-6.2,5.1-9.5,12.4-9.5c3.7,0,6.3,0.5,8.9,1.2v-0.9c0-5.2-3.1-7.9-8.6-7.9
			c-3.4,0-6.1,0.8-8.8,2.1l-1.3-3.5c3.2-1.5,6.3-2.5,10.5-2.5c4.1,0,7.3,1.1,9.4,3.2c2,2,3,4.8,3,8.5v17.7h-4.3v-4.3
			c-2,2.6-5.3,4.9-10.4,4.9C222.4,235.4,217,232.3,217,226.3z M238.3,224.1v-2.7c-2.1-0.6-4.9-1.2-8.5-1.2c-5.4,0-8.5,2.4-8.5,5.8
			v0.1c0,3.6,3.4,5.8,7.3,5.8C234,231.9,238.3,228.7,238.3,224.1z"/>
		<path class="st2" d="M249.6,205.7h4.3v5.1c1.9-3.1,4.9-5.7,9.9-5.7c7,0,11.1,4.7,11.1,11.6v18h-4.3v-16.9c0-5.4-2.9-8.8-8-8.8
			c-5,0-8.7,3.6-8.7,9.1v16.6h-4.3V205.7z"/>
		<path class="st2" d="M282,193.8h4.3v28.3l15.7-16.3h5.4l-12.2,12.5l12.6,16.6h-5.2l-10.4-13.5l-5.9,5.9v7.6H282V193.8z"/>
	</g>
	<g>
		<path class="st3" d="M307.7,127c-0.9,14-5.6,26.2-14.1,37c-8.6,10.9-19.5,18.3-33.2,22.5c0.2-1.5,0.3-2.6,0.5-3.6
			c1.8-8,3.5-16.1,5.4-24.1c0.2-1,0.9-2,1.6-2.8c8.2-10.3,18.5-18.1,30-24.3c2.5-1.4,5.1-2.6,7.7-3.8
			C306.1,127.5,306.7,127.3,307.7,127z"/>
		<path class="st3" d="M307.2,114.6c-2.3-17.5-10.5-32-24.2-43c-13.9-11.1-29.9-15.8-47.6-14.1c-16.6,1.6-30.6,8.5-41.9,20.7
			c-14.5,15.7-20.2,34.5-16.8,55.6c3.3,20.7,14.6,36.3,32.8,46.9c0.6,0.3,1.2,0.5,1.9,0.8c0.1-0.5,0.1-0.7,0.1-1
			c-0.7-6.5-1.5-13.1-2.2-19.6c-0.3-2.9-1.1-5.4-3-7.6c-5.6-6.7-12.1-12.3-19.5-16.9c-0.7-0.4-1.4-0.9-2.1-1.3
			c8.6,2.4,16.4,6.4,23.6,11.7c4.7-8.2,10.5-15.2,18-20.7c-0.4,0.7-0.9,1.4-1.3,2.1c-5.9,8.2-10.6,17-13.3,26.8
			c-0.4,1.4-0.4,2.9-0.2,4.3c0.4,4.1,1,8.2,1.5,12.3c0.4,3.8,0.8,7.6,1.2,11.5c6.7,3.1,13.5,5,20.9,5.7c0.1-0.9,0.3-1.5,0.3-2
			c0.2-5.4,0.7-10.7,0.7-16.1c-0.2-14.2-0.5-28.3-1-42.5c-0.1-3,0.2-6.1-1.5-8.9c-1.4-2.2-2.6-4.6-4.2-6.7
			c-7.2-9.8-16.7-17-26.9-23.4c-2.7-1.7-5.4-3.2-8.1-4.7c16.2,3.2,29.5,11.3,40.6,23.6c4.2-7.2,9-13.6,14.9-19.2
			c5.9-5.6,12.4-10.2,20.2-12.8c-0.2,0.4-0.5,0.6-0.7,0.9c-6,6.3-12.2,12.4-17.8,19c-5.8,6.7-10.5,14.2-13.6,22.5
			c-0.4,1.2-0.8,2.5-0.8,3.7c0.2,5.1,0.6,10.1,0.9,15.2c0.2,4.4,0.4,8.7,0.4,13.1c0,10.2-0.2,20.4-0.3,30.6c0,2.5-0.2,5.1-0.3,7.6
			c0.4,0.1,0.6,0.2,0.9,0.3c6.1,0.3,12.1,0,18.1-1.6c0.6-0.2,1.3-1.1,1.5-1.8c1.8-8.2,3.3-16.5,5.3-24.6c0.7-2.9,0.7-5.7,0.3-8.6
			c-1.6-10.8-5.4-20.9-10.8-30.3c-2-3.4-4.1-6.7-6.2-10.1c10.1,8.5,18.6,18.1,22.6,31c0.3,0,0.5,0,0.6-0.1c0.4-0.3,0.9-0.6,1.3-0.9
			c10.7-7.6,22.2-13.4,35-16.2c1.3-0.3,1.8-0.9,1.7-2.1C307.7,120.6,307.6,117.6,307.2,114.6z M202.9,116c5.5,0,10,4.5,10,10
			c0,5.5-4.5,10-10,10c-5.5,0-10-4.5-10-10C192.9,120.5,197.4,116,202.9,116z M233.1,91.2c-6.8,0-12.3-5.5-12.3-12.3
			c0-6.8,5.5-12.3,12.3-12.3c6.8,0,12.3,5.5,12.3,12.3C245.4,85.7,239.8,91.2,233.1,91.2z M277.4,129.4c-6.2,0-11.3-5.1-11.3-11.3
			c0-6.2,5.1-11.3,11.3-11.3c6.2,0,11.3,5.1,11.3,11.3C288.7,124.4,283.7,129.4,277.4,129.4z"/>
	</g>
</g>
</svg>
