<?xml version="1.0" encoding="utf-8"?>
<!-- Generator: Adobe Illustrator 17.1.0, SVG Export Plug-In . SVG Version: 6.00 Build 0)  -->
<!DOCTYPE svg PUBLIC "-//W3C//DTD SVG 1.1//EN" "http://www.w3.org/Graphics/SVG/1.1/DTD/svg11.dtd" [
	<!ENTITY ns_flows "http://ns.adobe.com/Flows/1.0/">
	<!ENTITY ns_extend "http://ns.adobe.com/Extensibility/1.0/">
	<!ENTITY ns_ai "http://ns.adobe.com/AdobeIllustrator/10.0/">
	<!ENTITY ns_graphs "http://ns.adobe.com/Graphs/1.0/">
]>
<svg version="1.1" id="Layer_1" xmlns:x="&ns_extend;" xmlns:i="&ns_ai;" xmlns:graph="&ns_graphs;"
	 xmlns="http://www.w3.org/2000/svg" xmlns:xlink="http://www.w3.org/1999/xlink" xmlns:a="http://ns.adobe.com/AdobeSVGViewerExtensions/3.0/"
	 x="0px" y="0px" viewBox="0 0 112 112" style="enable-background:new 0 0 112 112;" xml:space="preserve">
<style type="text/css">
	.st0{fill:#FFFFFF;}
	.st1{fill:#92278F;}
	.st2{fill:#008752;}
	.st3{fill:#FFCD00;}
	.st4{fill:#0033A0;}
	.st5{fill:#0099FF;}
	.st6{fill:#211E1F;}
	.st7{fill:#ED8B00;}
	.st8{fill:#97D700;}
	.st9{fill:#009639;}
	.st10{fill:#EA7600;}
	.st11{fill:#003087;}
	.st12{fill:#007A33;}
	.st13{fill:#003DA5;}
	.st14{fill:#E4002B;}
</style>
<g>
	<rect class="st0" width="112" height="112"/>
	<g>
		<polyline class="st5" points="112,49.8 80,49.8 80,32.4 31.4,32.4 31.4,49.8 0,49.8 0,0 112,0 112,49.8 		"/>
		<polyline points="31.4,79.7 80.5,79.7 80.5,61.4 112,61.4 112,112 0,112 0,61.4 31.4,61.4 31.4,79.7 		"/>
		<path d="M74.5,42.3c0,0.1-0.2,0.1-0.1,0.2l0.1,0.1c0,0.2,0,0.5,0,0.7l0,0l0.1,0.1c0,0.2,0,0.5,0,0.7h0c0,0.1-0.1,0.1-0.2,0.2
			c0,0.1,0.1,0.1,0.1,0.1l0,1.4c0,0-0.1,0-0.1,0.1l0.1,0c0,0.2,0,0.5,0,0.8h0l0,0.8c0,0-0.1,0-0.1,0.1c0.1,0.1,0,0.2,0.1,0.2l0,0.9
			c-0.1,0,0,0.1-0.1,0.1c0.1,0.1,0,0.1,0,0.2c0,0.2,0,0.4-0.1,0.7c0.2,0,0.1,0.2,0.1,0.4l0,0.9c-0.1,0.2-0.2-0.1-0.3,0
			c-0.1,0-0.2,0-0.4,0c-0.2,0-0.5,0.1-0.7,0.2c-0.3,0.2-0.6,0.2-0.9,0.4c-0.1-0.1-0.1,0.1-0.2,0.1c0,0.1-0.1,0-0.1,0.1
			c-0.1,0-0.1,0.1-0.2,0.1c-0.1,0.1-0.1,0.2-0.2,0.2c0,0,0,0.1-0.1,0c-0.3,0.2-0.4,0.5-0.8,0.6c0,0.1-0.1,0-0.1,0.1
			c-0.1,0.2-0.3,0.2-0.3,0.4h0c-0.2,0.1-0.1,0.5-0.3,0.6c-0.1,0.2-0.2,0.4-0.3,0.6c-0.1,0.1,0,0.2-0.2,0.3c0,0.2-0.2,0.5-0.2,0.7
			c-0.1,0.1-0.1,0.3-0.1,0.4c-0.1,0.2-0.1,0.3,0,0.5c0,0.1,0,0.1,0,0.1c0.1,0,0.3,0,0.5,0c0.1,0,0,0.2,0.1,0.3l0,0.1l0.1,0
			c-0.1,0.2-0.1,0.4-0.1,0.6c0.1,0.2-0.1,0.3-0.1,0.5c-0.2,0-0.1,0.2-0.3,0.2c0,0.2-0.1,0.4,0,0.6c0,0.2,0.1,0.5,0,0.7
			c0,0.2,0,0.5,0,0.7c-0.1,0,0,0.1-0.1,0.1c0.2,0.3,0.1,0.7,0.2,1c-0.1,0.1-0.1,0.3-0.1,0.4c-0.1,0-0.3,0-0.5,0.2
			c-0.1-0.1-0.2-0.2-0.3-0.2c0-0.2-0.3-0.1-0.4-0.1c-0.3,0.1-0.4,0.1-0.7,0.2c-0.2-0.1-0.3-0.3-0.5-0.3c-0.1,0-0.1,0.2-0.2,0.2
			c-0.1,0-0.2-0.2-0.3-0.1l0,0.1c-0.4-0.1-0.7-0.3-1.1-0.3c-0.4,0-0.7,0.1-1,0.2c-0.3,0-0.5,0.2-0.8,0.1c0-0.1-0.2-0.1-0.2-0.1l0,0
			c-0.1,0-0.1,0.2-0.3,0.3c-0.2,0.2-0.6-0.2-0.9,0.1c-0.1,0,0-0.1-0.1-0.3c-0.1-0.3,0-0.8-0.2-1.2c0-0.2,0.1-0.4,0.3-0.6
			c0-0.1-0.1-0.1-0.2-0.2c0,0-0.1,0-0.1,0c0-0.1-0.2-0.2,0-0.2c0-0.2,0.2-0.3,0.1-0.4c-0.1-0.1-0.4-0.1-0.4-0.3
			c0.1-0.1-0.1-0.4,0.1-0.5c0-0.1,0-0.2-0.1-0.2c-0.1,0-0.2-0.1-0.3,0c-0.2-0.1-0.1-0.3-0.1-0.4c0-0.1,0.1-0.2,0-0.3l0,0
			c-0.1,0,0.1-0.1,0-0.2c0-0.2,0-0.3,0-0.5c0,0,0-0.1,0-0.1c0.1-0.1,0.2,0,0.4,0l0,0l0.4-0.1c0.1-0.3-0.1-0.5,0-0.8h0l0-0.2
			c0-0.1,0-0.2-0.1-0.3c0.1-0.1,0-0.2,0-0.2c-0.1-0.2-0.1-0.5-0.3-0.7c0-0.2-0.1-0.3-0.2-0.5c-0.4-0.9-1.3-1.4-2-2
			c-0.2-0.1-0.4-0.2-0.7-0.3c-0.3-0.2-0.6-0.2-0.9-0.3c-0.6-0.1-1.1-0.2-1.7-0.2c-0.5,0-0.9,0.1-1.3,0.1c0,0-0.1,0.1-0.1,0
			c-0.2,0-0.3,0.1-0.4,0.1c-0.2,0.1-0.4,0.1-0.5,0.2c-0.1,0-0.2,0.1-0.3,0.1c-0.4,0.2-0.8,0.3-1.1,0.6c-0.2,0.1-0.5,0.3-0.7,0.5
			c-0.2,0.2-0.4,0.4-0.5,0.6c-0.2,0.1-0.3,0.4-0.5,0.6c0,0.2-0.2,0.2-0.2,0.3c-0.2,0.1-0.2,0.3-0.3,0.5c0,0.1,0,0.1-0.1,0.1
			c0,0.2-0.2,0.3-0.1,0.5c-0.1,0.1-0.1,0.3-0.1,0.4c0,0.2-0.1,0.5-0.1,0.7c0,0-0.1,0.1,0,0.1c0.1,0,0.1,0,0.2,0v0
			c0.1,0.1,0.4,0,0.5,0.2c0.1,0.4,0,0.8,0,1.3C50.2,57.9,50.1,58,50,58c-0.1,0-0.1,0.1-0.2,0.1c-0.1,0.1-0.1,0.2-0.1,0.3
			c0.2,0.1,0,0.3,0.1,0.5c0,0.3-0.5,0.1-0.4,0.4c-0.1,0.3,0.1,0.6,0,0.9c0,0.4,0,0.8,0,1.2c-0.1,0-0.1,0.1-0.2,0.1
			c0.2,0.1,0.3,0.3,0.2,0.6c0,0,0,0,0.1,0c-0.1,1.4,0,2.6-0.1,4c0,0.1-0.2,0.1-0.2,0.2c0.1,0,0.1,0.1,0.2,0.2c0,0.7,0,1.4,0,2.1
			l-0.1,0.1l0,0.1h0l0.1,0.2c0,0.4,0,0.9-0.1,1.3c-0.1,0-0.3,0-0.4,0.1c-0.1,0-0.2-0.1-0.3-0.1c0-0.1-0.1-0.1-0.2-0.1
			c-0.1-0.2-0.4-0.2-0.6-0.3c-0.2,0-0.3,0.2-0.5,0c0,0,0,0,0-0.1l0,0c-0.1,0.1-0.2,0.2-0.3,0.1c-0.1-0.2-0.3-0.3-0.5-0.6
			c-0.1,0.1-0.2,0-0.2,0l0,0c-0.1,0-0.2,0.1-0.4,0c0-0.1-0.2-0.3-0.3-0.3C45.6,69,45.5,69,45.2,69c-0.1-0.1-0.1-0.3-0.1-0.5
			c0-0.2-0.2-0.3-0.2-0.4C44.8,68,44.7,68,44.5,68c-0.2,0.1-0.1,0.6-0.5,0.4c-0.1-0.1-0.4,0-0.4-0.3c-0.1-0.2-0.2-0.2-0.4-0.2
			c-0.1,0-0.2,0-0.2,0.1c-0.3-0.1-0.5-0.2-0.7-0.3c0-0.5-0.1-0.9,0-1.3c0.1,0,0.1-0.1,0.1-0.2l-0.1,0c-0.1-0.1-0.1-0.1-0.1-0.2
			l0-1.4c-0.1,0,0-0.1,0-0.1l0,0c0-0.1,0-0.4,0-0.5c0-0.1,0.3-0.1,0.2-0.2c0,0-0.1,0-0.1,0c0-0.1-0.1-0.1-0.1-0.2c0-0.4,0-0.8,0-1.1
			c-0.1-0.1,0-0.2,0-0.3c0.1-0.2-0.1-0.5,0.2-0.6c0.1,0,0.1-0.1,0.2-0.1c-0.1-0.1-0.4-0.2-0.4-0.4c0-0.4,0.1-0.9,0-1.2
			c0.1-0.2,0-0.3,0.1-0.4c0-0.1-0.2-0.1-0.2-0.2c0-0.1,0.2-0.2,0-0.2l0-0.7c0.1,0,0.1-0.1,0.2-0.1c0-0.1,0-0.2,0-0.3
			c-0.1,0-0.1-0.1-0.2-0.1c0-0.1-0.1-0.1-0.1-0.1c0,0-0.2,0-0.2-0.1c-0.1-0.1-0.2-0.1-0.2-0.2c0-0.3,0-0.7,0.1-1
			c0.2-0.1,0.5,0,0.7,0c0.1,0,0.3,0.1,0.3-0.1c0,0,0-0.1,0-0.1c-0.1-0.4-0.1-0.7-0.3-1c0-0.3-0.2-0.5-0.3-0.7c0-0.1-0.2-0.3-0.2-0.4
			c-0.1-0.1-0.1-0.2-0.2-0.2c0-0.2-0.2-0.2-0.3-0.4c-0.1,0,0-0.2-0.2-0.2c-0.1-0.2-0.3-0.2-0.4-0.4c-0.1-0.2-0.4-0.2-0.5-0.4
			c0-0.1-0.2-0.1-0.2-0.1C40,52,39.8,52,39.7,51.8c0,0-0.1,0-0.1-0.1c0,0,0,0-0.1,0c0-0.2-0.3-0.1-0.3-0.3c-0.1,0-0.1-0.1-0.2-0.1
			c-0.2,0-0.2-0.2-0.4-0.2c-0.2-0.1-0.4-0.2-0.7-0.3c-0.1-0.1-0.2-0.1-0.3-0.2c-0.1,0.1-0.1,0-0.2-0.1c-0.1-0.1-0.4-0.1-0.5-0.2
			l0-1.3c-0.1-0.1,0-0.2,0-0.2c0-0.3,0-0.7,0-1l0.2-0.2c-0.1-0.1-0.1-0.2-0.2-0.3c0.1-0.3,0-0.6,0.1-0.8c-0.1-0.1,0-0.3-0.1-0.4
			c0-0.1,0.4-0.4,0-0.5c-0.1-0.1,0-0.2,0-0.3c0-0.1,0-0.3,0-0.5c-0.1-0.1,0-0.2-0.1-0.3c0.1-0.1,0-0.3,0-0.4c0.1-0.1,0.2-0.3,0-0.4
			c0-0.2,0-0.4,0-0.5h0c0-0.1,0-0.1,0-0.2c0.1-0.1,0.2-0.1,0.2-0.1l0,0l0,0c-0.1-0.1-0.1-0.2-0.2-0.3c0,0,0-0.1,0-0.1
			c0.1-0.1,0.2-0.2,0.2-0.3c-0.1-0.1-0.1,0-0.2-0.1c0-0.1,0-0.2,0-0.3h0l0-0.6h0.8l6.7,0h0.9l13.1,0.1c0-0.1,0,0,0.1,0l10.7,0l0.1,0
			l4.6,0l0.7,0L74.5,42.3"/>
		<path class="st0" d="M73.4,42.6c0.1,0,0.4,0,0.4,0.1c-2,0-4.1,0-6,0c-0.2,0-0.4-0.1-0.7,0c-0.1-0.1-0.1,0-0.2,0
			c-0.3,0-0.6,0-0.9,0c-0.1,0.1-0.2,0-0.3,0.1c-0.6-0.1-1.1,0-1.8,0c-1-0.1-2.1,0-3.2-0.1c-0.1,0.1-0.1,0-0.2,0.1
			c-0.2-0.1-0.5,0-0.7-0.1h-0.6c-0.4,0-0.8,0-1.3,0c-0.5,0.1-0.9,0-1.4,0l-0.1,0l0,0l-0.7,0c-0.1,0-0.2,0.1-0.3,0
			c-0.3,0.1-0.6,0.1-0.9,0c-0.2,0.1-0.5-0.1-0.8,0.1c-0.2-0.1-0.5,0-0.7,0c-0.2,0-0.3,0-0.5,0c-0.1,0-0.2,0-0.3,0
			c-0.6,0-1.2,0-1.8,0c0-0.1-0.1,0-0.1,0c-1.1,0-2.2,0-3.2,0.1c-0.1,0-0.1-0.1-0.2,0c-0.3,0-0.6,0-0.8,0c-0.6,0-1.1,0-1.7,0
			c-0.1,0-0.1,0-0.2,0c-0.4-0.1-0.8,0-1.3,0c-0.2,0-0.5,0-0.6,0c-0.1,0-0.2,0-0.2,0c-0.2,0-0.5,0-0.7,0c-0.3-0.1-0.7,0-1-0.1
			c0-0.1,0-0.2,0.2-0.1c0.2,0,0.5,0,0.7,0l0,0c0.2,0,0.5,0,0.7,0c0.6,0,1.2,0,1.8,0c0.2-0.1,0.5-0.1,0.7,0c0.1-0.1,0.2,0,0.4-0.1
			c0.2,0,0.6-0.1,0.8,0c0.1,0,0.1,0,0.2,0c0.2,0,0.4,0,0.5,0.1c0.1,0,0.3-0.1,0.4,0c0.9,0.1,1.9,0,2.9,0.1c0.1,0,0.2,0,0.3,0
			c0.1,0,0.2,0,0.2,0c0.8,0,1.7,0.1,2.5,0l0,0.1c0.6-0.1,1.4,0,1.9-0.1c0.8,0,1.5,0.1,2.3,0c0.5,0,0.9,0,1.3,0c0.2,0,0.4,0,0.6,0
			c0.1,0,0.2-0.1,0.3,0c0.4,0,0.8,0,1.2,0l0,0.1c0.1-0.1,0.2,0,0.3-0.1l0.4,0c0,0,0,0,0,0l0.1-0.1c0.8,0,1.5,0.1,2.3,0
			c0.5,0,0.9,0,1.4,0c0.4,0.1,0.8,0,1.2,0.1c0.2,0,0.5,0,0.8,0c0.1,0,0.2,0,0.3,0c0.3,0,0.7,0.1,0.9,0c0.4-0.1,0.8,0,1.2,0l0.3,0v0
			c0.4-0.1,1.1,0,1.5,0c0.2,0,0.5,0,0.7,0C72.6,42.6,73.1,42.6,73.4,42.6"/>
		<path class="st0" d="M69.1,43.3c0.2,0.1,0.4,0,0.6,0c0.3-0.1,0.5,0,0.8,0c0,0.1-0.1,0.2-0.2,0.3c-0.2-0.1-0.5,0-0.7-0.1
			c-0.7,0-1.5-0.1-2.3-0.1c-0.6,0-1.1-0.1-1.7,0c-0.3-0.1-0.6,0.1-1,0c-0.6-0.1-1.3,0-1.9-0.1c-0.2-0.1-0.4-0.1-0.6-0.1
			c-0.4,0-0.7,0-1.1,0c-0.1,0.1-0.2,0-0.4,0c-1.3,0-2.6,0-3.8,0.1c-0.1-0.1-0.1,0.1-0.2,0c-0.1,0-0.3,0-0.4,0
			c-0.6,0.1-1.4-0.1-2,0.1c-0.2-0.1-0.5,0-0.6,0c0-0.1-0.1,0-0.1,0c-0.6,0-1.5-0.1-2.2-0.1c-0.1,0-0.3-0.1-0.4,0l-2.2,0
			c-0.1-0.1-0.3,0-0.4-0.1c-0.9,0.1-2,0-2.9,0.1c-0.1,0-0.2-0.1-0.3,0c-0.4-0.1-0.8,0-1.2,0c-0.1-0.1-0.2,0-0.3,0
			c-0.3-0.1-0.6,0-0.9,0c-0.1,0-0.3,0-0.4,0c-0.5-0.1-1,0-1.4,0c-0.4,0-0.9-0.1-1.3,0c-0.2,0-0.3,0-0.5,0c-0.1,0-0.2,0-0.2,0
			c-0.2,0-0.2,0-0.4,0c0-0.1,0-0.2,0-0.2c0.8-0.1,1.7,0.1,2.5,0c0.7,0,1.4,0.1,2.1,0.1c0.6,0,1.3-0.1,1.9,0c0.2,0,0.4,0,0.6,0
			c0.4,0,0.9,0,1.4,0c0.1,0,0.3,0,0.4,0c0.5,0,1.2-0.1,1.7,0c0.3,0,0.6,0,0.8,0l0.7,0c0,0.1,0.1,0,0.1,0l1.2,0l0,0
			c0.8,0,1.5,0,2.4,0c0.8,0.1,1.7,0,2.6,0c0,0.1,0.1,0,0.2,0c1.3,0,2.3-0.1,3.6,0c0.9,0.1,1.9-0.1,2.8,0c1.3,0,2.6,0,3.9,0
			C67.8,43.4,68.4,43.3,69.1,43.3L69.1,43.3"/>
		<path class="st0" d="M72.2,44.5c-0.1,0.1,0,0.2,0,0.3c0,0.3,0,0.6,0,0.9c-0.4,0-0.9,0-1.3,0.1c-0.1-0.1-0.2,0-0.3,0
			c0-0.4-0.1-0.8,0-1.2l0,0c0.4-0.1,0.9,0,1.3-0.1L72.2,44.5"/>
		<path class="st0" d="M69.4,44.5c0.1,0.1,0,0.2,0,0.4c0.1,0.1-0.1,0.3,0,0.4c0,0.1,0,0.3,0,0.4c-0.4,0-1,0-1.5,0
			c-0.4-0.1-0.8,0.1-1.2,0c-0.3,0-0.7,0-1.1,0c-0.1,0-0.2-0.1-0.3,0c-0.3,0.1-0.6,0-0.9,0c0-0.4,0-0.9,0-1.3c0.3,0,0.5,0.1,0.8,0
			c0.2,0,0.3,0,0.5,0c0.8,0.1,1.6-0.1,2.3,0C68.5,44.4,68.9,44.5,69.4,44.5"/>
		<polyline class="st0" points="73.5,44.6 73.5,44.7 73.5,44.6 		"/>
		<path class="st0" d="M61.9,44.4l0.9,0c0,0.3,0,0.6,0,0.8c0,0.1,0,0.2,0,0.3c-0.1,0.1-0.3,0-0.4,0.1c-0.5,0-0.9,0-1.3-0.1
			c-0.2,0-0.4,0-0.6,0c0-0.4-0.1-0.7,0-1.2c0.4,0,0.7-0.1,1.1,0C61.7,44.4,61.8,44.5,61.9,44.4"/>
		<path class="st0" d="M59.2,44.5c0,0.2,0,0.4,0,0.5c-0.1,0.2,0,0.4,0,0.6l0,0.1c-1.1,0-2.1,0.1-3.2,0.1l-0.1-0.1
			c0.1-0.2,0-0.6,0.1-0.8c-0.1-0.1,0-0.2,0-0.2c-0.1-0.1,0.1-0.1,0.2-0.1c0.3,0.1,0.5-0.1,0.7,0c0.2,0,0.3,0,0.5,0
			c0.1,0,0.3-0.1,0.4,0c0.1-0.1,0.3,0,0.4,0c0,0.1,0.1,0,0.1,0c0.3-0.1,0.5,0,0.7,0L59.2,44.5"/>
		<path class="st0" d="M55,44.4c0.1,0.1,0.1,0.3,0.1,0.5c0,0-0.1,0-0.1,0l0.1,0l0,0c0,0.3,0,0.5,0,0.7l-0.1,0
			c-0.5-0.1-1.1,0-1.7-0.1c0,0-0.1,0-0.1,0c-0.1-0.2,0-0.3,0-0.4c0-0.3,0-0.5,0-0.8C53.7,44.4,54.3,44.4,55,44.4"/>
		<path class="st0" d="M73.5,45L73.5,45l0-0.2C73.5,44.9,73.5,44.9,73.5,45"/>
		<path class="st0" d="M52,44.4c0.1,0.2,0,0.4,0,0.6c0,0.1,0,0.3,0,0.5c0,0.1,0,0.1-0.1,0.1c-0.9-0.2-1.7-0.1-2.7-0.1l0,0
			c-0.6,0-1.1,0-1.8-0.1c0-0.1,0-0.3,0-0.5c0-0.2-0.1-0.4,0-0.6l0-0.1c0.4,0.1,0.9,0,1.3,0.1c0.3,0,0.5,0,0.8,0c0.3,0,0.7,0,1,0
			c0.4,0,0.7,0.1,1.1,0C51.7,44.4,51.9,44.4,52,44.4"/>
		<path class="st0" d="M46.6,44.4c0,0.3,0,0.7,0,1.1c-0.8,0-1.4,0-2.2,0c-0.2,0-0.4,0-0.7,0c-0.1,0-0.3,0.1-0.3-0.1
			c0-0.2,0-0.3,0-0.5c0-0.2,0-0.4,0.1-0.5c0.5,0,1.1,0.1,1.6,0.1l0.2,0c0.3,0,0.7-0.1,1,0C46.4,44.4,46.5,44.4,46.6,44.4"/>
		<path class="st0" d="M42.8,44.3c0,0.4,0,0.7,0,1.2c-0.5,0-1,0-1.5,0c-0.5,0.1-1,0-1.5,0c-0.3,0-0.6,0-0.9,0c0-0.3,0-0.7,0-1
			c1.2,0,2.3,0,3.5,0L42.8,44.3"/>
		<path class="st0" d="M38.3,44.3c0,0.4,0,0.7,0,1c-0.1,0-0.3,0-0.4,0c0-0.3,0-0.7,0-1L38.3,44.3"/>
		<polyline class="st0" points="73.5,45.5 73.5,45.2 73.5,45.5 73.5,45.5 		"/>
		<path class="st0" d="M72.8,46.7C72.9,46.8,72.8,46.8,72.8,46.7L72.8,46.7c0,0.3,0.1,0.4,0,0.6c0,0.1,0,0.1,0,0.2
			c0,0.1,0,0.2-0.1,0.2c-0.3,0-0.7,0.1-1.1,0c-0.4,0.1-0.9-0.1-1.4,0c-0.1,0-0.2,0-0.2-0.1l0,0l0-0.4c0.1,0,0-0.1,0-0.1c0,0,0,0,0,0
			c-0.1,0,0-0.1,0-0.2v0c0.1-0.1,0.3,0,0.4,0C71.4,46.8,72.1,46.7,72.8,46.7"/>
		<path class="st0" d="M68.1,46.7L68.1,46.7c0,0.2,0.1,0.3,0.1,0.4c0,0.2,0,0.4,0,0.5c-1,0-1.7,0.1-2.7,0c-0.1-0.1,0-0.2,0-0.3
			c-0.1-0.2,0-0.4,0.1-0.7c0.1,0,0.2,0,0.3,0c0.1-0.1,0.3-0.1,0.5-0.1c0.1,0,0.3,0,0.4,0v0C67.1,46.7,67.7,46.6,68.1,46.7"/>
		<path class="st0" d="M64.2,47C64.1,47,64.3,47.1,64.2,47c0,0.2,0.1,0.3,0,0.4c0,0.1,0,0.1,0,0.2l0,0.1c-0.8,0.1-1.5,0.1-2.3,0.1
			c0-0.1-0.1-0.2,0-0.4c-0.1-0.1,0.1-0.2,0-0.3c0.1-0.1-0.1-0.1,0-0.2c0,0,0-0.1,0-0.1c0.7,0,1.4,0,2.2-0.1
			C64.3,46.7,64.2,46.9,64.2,47"/>
		<path class="st0" d="M60.7,46.7c0.1,0.1,0,0.3,0,0.4c0,0.1,0,0.2-0.1,0.2c-0.8,0.1-1.5,0-2.3,0.1c-0.1,0-0.2,0-0.3,0
			c-0.3,0-0.6,0-0.9,0c0-0.2,0.1-0.4,0-0.6c0.7-0.1,1.3,0,1.9-0.1c0,0,0.1,0,0.1,0C59.8,46.7,60.3,46.8,60.7,46.7"/>
		<path class="st0" d="M56.1,46.7c0,0.2,0,0.5,0,0.7c-0.5,0.1-1,0-1.6,0c0-0.3,0-0.5,0-0.7C55.1,46.7,55.6,46.7,56.1,46.7"/>
		<path class="st0" d="M53.1,46.7l0.4,0c0.1,0.2,0,0.5,0,0.7c-0.4,0-0.8,0.1-1.1,0c0,0-0.1,0-0.1,0c0-0.2,0-0.4,0.1-0.7
			c0.1,0,0.2,0,0.3-0.1C52.9,46.7,53,46.7,53.1,46.7"/>
		<path class="st0" d="M51.4,47.4L51.4,47.4c-0.3-0.1-0.7,0-0.9-0.1c-0.2,0.1-0.4,0-0.7,0c-0.5,0-1,0-1.6,0l0-0.6
			c0.1,0,0.2,0,0.3-0.1c0.1,0,0.1,0,0.2,0.1c0.3,0,0.4,0,0.7,0c0.2-0.1,0.3,0,0.6,0c0.2-0.1,0.5,0.1,0.7,0c0.2,0.1,0.4,0,0.7,0l0,0
			C51.5,46.9,51.4,47.2,51.4,47.4"/>
		<path class="st0" d="M39.4,46.6L39.4,46.6c0.1,0,0.1,0,0.2,0c0,0.2,0,0.4,0,0.6c-0.3,0-0.7,0-1,0c-0.2,0.1-0.4-0.1-0.6,0
			c-0.1-0.1-0.1-0.3,0-0.5c0,0,0-0.1,0-0.1c0.3,0,0.7-0.1,1,0L39.4,46.6"/>
		<path class="st0" d="M43.5,46.7c0,0.1,0,0.2,0,0.3c0,0.1,0,0.2,0,0.3c-0.1,0-0.2,0-0.4,0l-0.9,0c-0.1,0-0.2,0-0.4,0l-1,0
			c-0.1-0.1,0-0.4,0-0.6l0-0.1c0.2,0,0.4,0.1,0.6,0C42.1,46.7,42.7,46.6,43.5,46.7"/>
		<path class="st0" d="M47.2,46.8v0.6l0,0c-0.3,0-0.7-0.1-1,0l0,0c-0.5,0-1.1,0-1.6,0c0-0.2,0-0.4,0.1-0.6
			C45.4,46.7,46.4,46.8,47.2,46.8"/>
		<path class="st0" d="M72.6,48.4C72.6,48.4,72.6,48.4,72.6,48.4l0.3,0c-0.4,0.1-0.9,0.2-1.3,0.5c-0.2,0-0.3,0.1-0.5,0.2
			c-0.3,0.2-0.6,0.3-0.9,0.5c0-0.3,0-0.6,0-0.9c0-0.1,0.1-0.1,0-0.2c0.5,0,1,0,1.5,0C72,48.4,72.3,48.4,72.6,48.4"/>
		<path class="st0" d="M69.3,48.5c-0.1,0.1,0.1,0.2-0.1,0.3c0.1,0.1,0,0.2,0,0.2c0,0-0.1,0-0.1,0c0.1,0.2,0,0.5,0,0.7c0,0,0.1,0,0,0
			c-0.2,0-0.3,0.1-0.5,0.1c-0.2-0.1-0.3,0.1-0.4,0c0.1-0.1-0.1-0.1,0-0.2c-0.1-0.1,0-0.2,0-0.4c0.1,0,0.1-0.1,0.2,0
			c0.1-0.1,0.2,0,0.2-0.1c0-0.2,0.1-0.4,0-0.5c0.1,0,0-0.1,0-0.1l0-0.1C68.9,48.4,69.2,48.3,69.3,48.5"/>
		<path class="st0" d="M62.4,48.5c0,0.2,0.1,0.4,0.1,0.6l0,0c0.1,0.1-0.1,0.2,0.1,0.3l0.4,0c0.1,0.2-0.1,0.5,0.1,0.6
			c0.1,0.1,0.3,0,0.4,0c-0.4,0-0.8,0-1.1,0c-0.4-0.3-0.7-0.5-1.1-0.8c-0.4-0.3-0.8-0.5-1.2-0.7c0.3,0,0.8-0.1,1.1,0
			C61.6,48.5,62,48.4,62.4,48.5"/>
		<path class="st0" d="M57.4,48.6c0.1,0,0.2,0,0.2,0.1c0.1-0.1,0.2,0,0.3,0c-0.1,0.2-0.1,0.4-0.2,0.5c0,0.1,0,0.2,0,0.3
			c-0.2,0.1-0.4,0-0.6,0c0,0.1-0.1,0-0.2,0c-0.2,0-0.5,0-0.7,0c-0.1-0.1-0.2,0-0.3,0v0c-0.7,0-1.5,0.1-2.2,0.3
			c-0.1-0.4-0.2-0.7-0.3-1.1c0.9-0.3,1.9-0.2,2.8-0.3C56.7,48.5,57.1,48.5,57.4,48.6"/>
		<path class="st0" d="M50.6,48.4c-0.2,0.1-0.3,0.2-0.4,0.3c-0.1,0.2-0.3,0.1-0.5,0.3c-0.1,0.1-0.2,0.2-0.3,0.2
			c-0.1,0.2-0.3,0.3-0.5,0.4v0c-0.1,0-0.2,0.1-0.3,0c0-0.2,0.1-0.3,0-0.4c0.1-0.1,0.2,0,0.3-0.1c0-0.2,0-0.4,0-0.6
			C49.5,48.5,50,48.4,50.6,48.4"/>
		<path class="st0" d="M43.1,48.4c0,0.2-0.1,0.5,0.1,0.7c0.1,0.1,0.3,0,0.4,0.1l0,0.5c-0.4,0.1-0.9,0-1.4,0l0,0c0-0.4,0-0.9,0-1.3
			C42.5,48.4,42.8,48.3,43.1,48.4"/>
		<path class="st0" d="M41.5,48.7c-0.1,0.2,0,0.4,0,0.7c-0.6-0.4-1.3-0.7-2-0.9l0,0c0.2-0.1,0.5,0.1,0.6,0v0c0.5,0.1,0.9,0,1.4,0
			L41.5,48.7"/>
		<path class="st0" d="M73.5,49.2C73.4,49.2,73.5,49.3,73.5,49.2c-0.1,0.2,0,0.3-0.1,0.4L73,49.7c0,0,0-0.1,0-0.1
			c-0.1-0.1-0.1-0.2-0.2-0.3C72.9,49.2,73.2,49.1,73.5,49.2L73.5,49.2"/>
		<path class="st0" d="M59.5,49.2c0.1,0.1,0.2,0,0.3,0.1c0.3,0.2,0.6,0.2,0.8,0.4c0.3,0.1,0.5,0.4,0.8,0.6c-0.1,0.1-0.2,0.2-0.3,0.2
			c-0.1-0.1-0.2-0.2-0.3-0.2c-0.7-0.4-1.3-0.8-2-1.1c0-0.1,0-0.2,0.1-0.3C59.1,49,59.3,49.1,59.5,49.2"/>
		<path class="st0" d="M52.9,49.3c0.1,0.2,0.1,0.5,0.2,0.7c-0.6,0.2-1.1,0.4-1.6,0.7c-0.2-0.1-0.3-0.3-0.4-0.5L51,50.1
			c-0.2,0.1-0.3,0.1-0.5,0.3l-0.1-0.1c0.1-0.2,0.4-0.2,0.5-0.4c0.1,0.1,0.1-0.1,0.2-0.1c0.6-0.3,1.1-0.5,1.7-0.8
			C52.8,49.1,52.8,49.2,52.9,49.3"/>
		<path class="st0" d="M72.1,49.6c0.1,0.1,0.1,0.3,0.1,0.4c-0.2,0.2-0.5,0.3-0.8,0.4l-0.3,0.2c-0.1-0.1-0.1,0.1-0.2,0
			c-0.2,0.2-0.5,0.3-0.7,0.5c-0.1-0.1-0.3-0.2-0.4-0.3c0.2-0.1,0.4-0.2,0.5-0.4C71,50.1,71.5,49.8,72.1,49.6L72.1,49.6"/>
		<path class="st0" d="M38.5,49c0,0.1-0.1,0.2-0.1,0.3c-0.1,0.2-0.1,0.6-0.1,0.9c-0.2,0-0.3-0.1-0.5-0.1c0-0.1,0-0.3,0.1-0.4
			c-0.1-0.3,0-0.5,0-0.7C38.1,48.9,38.3,49,38.5,49"/>
		<polyline class="st0" points="65.6,49.9 65.6,49.9 65.6,49.9 		"/>
		<path class="st0" d="M46.5,49.8c-0.1,0.1,0,0.2,0,0.3c0.1,0.1,0,0.2,0,0.4l-0.1,0.1c0,0,0,0,0.1,0c0,0.1-0.1,0.2,0,0.2
			c-0.1,0,0.1,0.1,0,0.2c0.1,0.1-0.1,0.1,0,0.2c0,0.2-0.1,0.4,0,0.5l0,0l0,0.1c-0.1,0,0.1,0.1,0,0.2c0,0.1,0,0.1,0,0.2
			c-0.5,0.1-1-0.1-1.5,0c-0.1-0.7,0.1-1.5-0.1-2.1c0-0.1,0-0.1,0-0.2c0.3,0,0.5,0,0.8,0c0.2-0.1,0.5,0,0.8,0
			C46.4,49.8,46.5,49.8,46.5,49.8"/>
		<path class="st0" d="M40,50.5L40,50.5c0.3,0.1,0.4,0.3,0.7,0.4c0,0.1-0.2,0.2-0.2,0.3c-0.1-0.1-0.2-0.2-0.4-0.2
			c-0.2-0.1-0.4-0.2-0.7-0.3c-0.1-0.1-0.3-0.1-0.4-0.2l0.1-0.4C39.4,50.1,39.8,50.2,40,50.5"/>
		<path class="st0" d="M68.6,50.7c-0.2,0.2-0.4,0.4-0.6,0.6c0-0.2,0-0.4,0-0.6l0-0.1L68.6,50.7"/>
		<path class="st0" d="M65.8,50.6c0-0.1,0.2,0,0.3,0c0,0.2,0,0.4,0,0.6c-0.1,0,0,0.1,0,0.2c0.1,0.3-0.1,0.6,0,0.9
			c-0.3,0-0.7,0.1-1.1,0.1c0.1-0.2-0.1-0.6,0-0.8c-0.1-0.3,0-0.6,0-0.9c0.1-0.1,0.3,0,0.5-0.1C65.5,50.6,65.6,50.6,65.8,50.6
			L65.8,50.6"/>
		<path class="st0" d="M63.8,50.6c0.1,0.4,0,0.8,0.1,1.2c-0.1-0.2-0.3-0.4-0.4-0.6c-0.2-0.2-0.2-0.4-0.4-0.5c0.2-0.1,0.4,0,0.6-0.1
			C63.7,50.7,63.7,50.6,63.8,50.6"/>
		<path class="st0" d="M44.2,50.2c0,0.5,0.1,0.9,0,1.4c-0.4-0.4-0.8-0.8-1.2-1.2c-0.1,0-0.2-0.1-0.3-0.2c0.2,0,0.4,0,0.7-0.1
			C43.6,50.3,43.9,50.2,44.2,50.2"/>
		<path class="st0" d="M49,50.4c-0.1,0.2-0.5,0.3-0.6,0.5c-0.1,0-0.1,0.1-0.2,0.2c-0.1,0-0.1,0.2-0.3,0.3l0,0
			c-0.1-0.2,0-0.6-0.1-0.8c0-0.1,0-0.2,0-0.3c0.3-0.1,0.6,0,0.9-0.1L49,50.4"/>
		<path class="st0" d="M63.2,52.1c0.1,0.1,0.2,0.3,0.2,0.4l-0.2,0.2c-0.2-0.2-0.3-0.5-0.5-0.7c-0.3-0.4-0.6-0.6-1-1
			c0-0.1,0.2-0.2,0.2-0.3C62.4,51,62.8,51.6,63.2,52.1"/>
		<path class="st0" d="M50.2,51c0.2,0.2,0.3,0.5,0.5,0.7c-0.1,0.1-0.2,0.1-0.2,0.2c0,0,0,0,0,0c-0.1,0.3-0.5,0.5-0.7,0.7
			c-0.1,0.1-0.1,0.2-0.2,0.2c-0.3-0.2-0.5-0.5-0.9-0.7c-0.1,0-0.1,0.1-0.2,0.1c0.4-0.5,0.9-1.1,1.4-1.5C50,50.7,50,50.9,50.2,51"/>
		<path class="st0" d="M70.1,52.1c0,0.1,0,0.2,0.1,0.1c-0.4,0.4-0.7,0.8-1,1.2c-0.1,0-0.2-0.1-0.3-0.1c-0.3-0.1-0.5-0.3-0.7-0.4
			c-0.1-0.1-0.5-0.1-0.3-0.3c0.3-0.3,0.5-0.6,0.8-0.8c0.1,0,0-0.1,0.1-0.1c0.1-0.1,0.2-0.2,0.3-0.3C69.5,51.6,69.9,51.8,70.1,52.1"
			/>
		<path class="st0" d="M41.3,51.3c0.3,0.2,0.5,0.3,0.7,0.5c0.1,0.1,0.3,0.2,0.4,0.4l0.1,0c0,0,0,0,0,0.1c0,0,0.1,0,0.1,0v0
			c0.1,0.1,0.2,0.3,0.3,0.4c0.2,0.1,0.2,0.3,0.3,0.5c-0.2,0.1-0.3,0.3-0.5,0.3c-0.1-0.2-0.2-0.4-0.3-0.5v0c-0.1-0.2-0.4-0.4-0.5-0.6
			c-0.2-0.2-0.5-0.5-0.7-0.7C41.1,51.5,41.2,51.4,41.3,51.3C41.3,51.3,41.3,51.3,41.3,51.3"/>
		<path class="st6" d="M70.1,52.1C70,52.2,70,52.1,70.1,52.1L70.1,52.1L70.1,52.1"/>
		<path class="st0" d="M67.2,53L67.2,53c0.3,0.2,0.6,0.3,0.8,0.5c0.1,0,0.2,0.2,0.3,0.2c0.1,0.1,0.2,0.1,0.3,0.2
			c0.1,0,0.1,0.2,0.2,0.1c0,0,0,0.1-0.1,0.1c0,0.3-0.2,0.5-0.2,0.8c0,0.2,0,0.3-0.1,0.4c-0.1,0-0.1,0-0.2-0.1
			c-0.7-0.2-1.3-0.6-2-0.9c-0.1-0.2,0-0.5,0-0.7c-0.1-0.2,0-0.4-0.1-0.5c0-0.1,0.2-0.1,0.3-0.1C66.7,53,66.9,52.9,67.2,53L67.2,53"
			/>
		<path class="st0" d="M64.9,53.1c0.1,0.1-0.1,0.2,0.1,0.2c0,0.2-0.1,0.3,0,0.5c-0.1,0.1,0,0.2,0,0.3c0,0.1,0,0.3-0.1,0.4
			c-0.2,0-0.4,0-0.6,0.1c0-0.2-0.1-0.4-0.1-0.6c0,0,0,0,0,0c-0.1-0.1-0.1-0.1-0.1-0.2c-0.1-0.2-0.1-0.4-0.2-0.5l0-0.2h0
			c0.1,0,0.2,0,0.3-0.1C64.4,53.1,64.6,53,64.9,53.1"/>
		<path class="st0" d="M48.7,53.3c0,0.1,0.2,0.1,0.2,0.2c0,0.2-0.2,0.2-0.2,0.4c-0.1,0-0.1,0.1-0.1,0.2c-0.1,0.2-0.2,0.4-0.3,0.5
			c-0.3-0.1-0.6,0-0.8-0.2c-0.1,0-0.3,0-0.4-0.1c-0.1,0.1-0.2,0-0.3,0c-0.1,0-0.2-0.1-0.2,0c0-0.1-0.2,0-0.2-0.1
			c0-0.4,0.1-0.8,0.1-1.1l0.9-0.1c0,0.1,0.1,0,0.1,0c0.1,0,0.2,0,0.3,0c0.1,0,0.2,0,0.2,0c0-0.1,0.1-0.1,0.1-0.2
			C48.3,52.9,48.5,53.1,48.7,53.3"/>
		<path class="st0" d="M45.1,52.9l0.4,0c0,0.2-0.1,0.3,0,0.4c0,0.1-0.1,0.2-0.1,0.2c0.1,0.1,0,0.2,0,0.3c0,0.1-0.1,0.2-0.2,0.2
			c-0.1,0-0.1,0.1-0.2,0c-0.2,0-0.4,0.2-0.6,0.1c-0.1,0.1-0.2,0.1-0.4,0.2c-0.3,0-0.6,0.2-0.8,0.1c-0.1-0.1-0.1-0.3-0.2-0.5v0
			c0.6-0.4,1.1-0.8,1.6-1.1C44.8,52.9,45,53,45.1,52.9"/>
		<path class="st0" d="M66.1,55.2c0,0,0,0.2-0.1,0.1c0,0,0,0,0,0c0,0,0.1,0,0.1,0.1l0,0h0c0,0,0.1,0.2,0,0.2c0.1,0.1,0,0.3,0,0.5
			c0,0.1,0,0.3-0.1,0.4c-0.4,0-0.7,0-1.1,0c-0.5,0.1-1.2,0-1.7,0c-0.2-0.1-0.1-0.4-0.1-0.5c0.2,0,0.3-0.2,0.5-0.2
			c0.2-0.2,0.6-0.1,0.8-0.3c0.4,0,0.6-0.2,1-0.3c0.1-0.1,0.3-0.1,0.4-0.1c0-0.1,0.2-0.1,0.2-0.1C66.1,55.1,66.1,55.2,66.1,55.2"/>
		<path class="st0" d="M45.9,55l0.7,0.1c0.1,0.1,0,0.1,0,0.2c0,0.2,0,0.3-0.1,0.5c0.1,0.1,0,0.3,0,0.4v0.1c-0.8,0-1.6,0-2.4,0
			c0-0.3-0.1-0.5-0.1-0.8c0.5-0.2,1-0.2,1.5-0.5C45.7,54.9,45.8,55,45.9,55"/>
		<path class="st0" d="M68.3,55.9c0,0.2,0,0.4,0,0.6c-0.4,0-0.8,0-1.2,0c-0.1-0.1,0-0.2,0-0.3c0.1,0,0-0.1,0-0.1c0-0.2,0-0.3,0-0.5
			l0-0.1C67.6,55.6,67.9,55.8,68.3,55.9"/>
		<path class="st0" d="M48.8,55.6l0,0.7c-0.2-0.1-0.4,0.1-0.6,0c-0.1,0-0.2,0.1-0.3,0c0.1-0.1,0-0.3,0.1-0.4c0-0.1,0-0.2-0.1-0.3
			l0-0.1C48.2,55.5,48.5,55.5,48.8,55.6"/>
		<path class="st0" d="M68.2,57.6c0,0.1-0.2,0.2-0.2,0.2c-0.1,0.2-0.4,0.3-0.2,0.6c0,0.1,0,0.3-0.1,0.4l-0.3,0
			c0-0.1,0.2-0.2,0.2-0.2c0,0,0-0.1,0-0.1c0-0.1-0.1-0.2-0.1-0.3c0-0.1,0.3-0.2,0.1-0.4l-0.2-0.2C67.7,57.6,68,57.6,68.2,57.6"/>
		<path class="st0" d="M49.5,57.2C49.5,57.3,49.5,57.2,49.5,57.2c-0.3,0.2-0.5,0.4-0.7,0.5c0,0.1-0.1,0.1-0.2,0.1
			c-0.1,0.1-0.1,0.2-0.1,0.4c0.1,0.1,0.3,0.2,0.1,0.3c0,0,0,0.1,0,0.2c-0.2,0.1-0.4,0-0.6,0H48c0-0.1,0-0.2,0-0.3c0-0.1,0-0.1,0-0.2
			C48,58.2,48,58.1,48,57.9c0-0.1,0-0.1,0-0.2l0.1,0l0,0c0.1,0,0.2,0,0.3,0c0.1,0.1,0.2-0.1,0.3-0.2c-0.1-0.1-0.2-0.2-0.2-0.4
			c0.1,0.1,0.3-0.1,0.5,0c0.1-0.1,0.2,0,0.3,0C49.4,57.2,49.5,57.2,49.5,57.2"/>
		<path class="st0" d="M66.4,57.8c0.1,0,0.1,0.1,0.2,0.1l0.2,0.2c-0.1,0.1-0.3,0.2-0.3,0.3c0.1,0.1,0.2,0.2,0.2,0.3
			c-0.2,0-0.2,0.1-0.4,0.1c-0.4-0.1-0.8,0.1-1.2,0c-0.1-0.1,0.1-0.3,0-0.4c0-0.1,0.1-0.1,0.1-0.2L65,58.2c0.3-0.2,0.5-0.4,0.8-0.6
			C66,57.7,66.3,57.6,66.4,57.8"/>
		<path class="st0" d="M64,57.6c-0.2,0.1-0.4,0.3-0.4,0.5c-0.1,0.1-0.2-0.1-0.3,0c-0.2,0-0.3,0-0.4,0c0.1-0.1,0-0.4-0.1-0.4
			c0.3,0,0.6-0.2,0.9-0.1C63.7,57.7,63.8,57.6,64,57.6"/>
		<path class="st0" d="M43.9,57.6c0,0.1-0.1,0.1-0.1,0.2c0,0.1,0.4,0.2,0.2,0.4c-0.1,0.1-0.2,0.2-0.2,0.3c0,0.1,0.1,0.2,0.2,0.2
			c-0.1,0.1-0.3,0-0.4,0c-0.2,0-0.4,0-0.6,0l-0.1-0.1c0.1,0,0.1,0,0.1-0.1c0.2-0.1,0.1-0.3,0.2-0.5l0-0.4
			C43.3,57.6,43.6,57.6,43.9,57.6"/>
		<path class="st0" d="M47,57.8c-0.1,0.3,0.1,0.5-0.1,0.7l0,0.2c0,0-0.1,0-0.1,0l0,0l0,0c-0.2,0-0.4,0-0.5,0c-0.1-0.1-0.3,0-0.4,0
			c-0.3,0-0.7,0-1,0c-0.1,0,0-0.1,0-0.2c0.1-0.1,0.1-0.2,0.2-0.2c-0.1-0.1,0-0.2-0.1-0.2c0.2-0.6,0.9-0.3,1.3-0.4c0,0.1,0.2,0,0.3,0
			C46.7,57.7,47.1,57.6,47,57.8"/>
		<path class="st0" d="M68.6,59.6c-1.4,0.2-2.9,0.1-4.3,0.1c-0.1-0.1-0.3-0.1-0.4-0.1c0,0,0,0,0,0c-0.1,0.1-0.3,0-0.5,0.1
			c-0.1,0-0.1,0-0.2,0c-0.2,0-0.3-0.1-0.4,0c0-0.1,0-0.1,0.1-0.2c1,0,2,0,3.1,0c0.1,0.1,0.2,0,0.3-0.1C67,59.5,67.8,59.5,68.6,59.6
			l0-0.1L68.6,59.6"/>
		<path class="st0" d="M48.4,59.5c0,0.2,0,0.4,0,0.6c0,0.1,0.1,0.3,0,0.4c0.1,0.1,0,0.2,0.1,0.3c0,0.1,0,0.1-0.1,0.1
			c-0.5,0-1,0-1.6,0c-0.7,0-1.4,0-2.1-0.1c-0.4,0.1-0.9-0.1-1.3,0c-0.1,0-0.4,0-0.4-0.1c0.1-0.1-0.1-0.1,0-0.3
			c0.1-0.2,0-0.4,0.1-0.6c0.7,0,1.4-0.1,2,0c0.3,0,0.6,0,1,0c0.3,0.2,0.6-0.1,0.8,0.1c0,0,0.1,0,0.1,0c0,0.1,0.1,0,0.2,0
			c0.1,0.1,0.2,0,0.3-0.1l-0.2-0.3c0-0.1,0.2,0,0.2,0c0.2,0,0.5,0,0.7,0C48.3,59.4,48.4,59.4,48.4,59.5"/>
		<path class="st0" d="M68.5,60.8c0,0.1-0.1,0.3,0,0.3l-0.1,0.1c-0.4,0-0.8,0.1-1.1,0c-0.1-0.1-0.1-0.3-0.2-0.4c0.1,0,0.2,0,0.4,0
			c0.3,0,0.6-0.1,0.9-0.1C68.3,60.8,68.4,60.7,68.5,60.8"/>
		<path class="st0" d="M66.5,60.8c-0.1,0,0,0.2-0.2,0.2c0-0.1,0-0.1,0-0.2C66.5,60.8,66.5,60.8,66.5,60.8"/>
		<path class="st0" d="M66.2,61c-0.1,0.3-0.5,0.1-0.8,0.1c-0.3,0-0.6,0.1-0.9,0.1c-0.3,0-0.7,0-0.9,0.1c0-0.1-0.2-0.2-0.3-0.1
			c-0.1,0-0.2,0-0.3,0c0,0-0.1,0.1-0.2,0.1c-0.1-0.1,0-0.2,0-0.2c0.2,0,0.5,0,0.7,0l0.1,0c0.9,0,1.7,0,2.6,0
			C66.1,61,66.1,61,66.2,61"/>
		<path class="st0" d="M48.4,61.7c0.1,0,0,0.1,0.1,0.2c-0.1,0.2,0,0.4,0,0.6c-0.1,0.2,0.1,0.5,0,0.7c0,0.1,0.1,0.1,0,0.2
			c-0.3,0.1-0.8,0-1.1,0.1c-0.6,0-1.3,0-2,0c0,0-0.1,0.1-0.1,0c0,0,0-0.1-0.1,0c-0.1,0-0.2,0-0.2,0c-0.6-0.1-1.3-0.1-1.9-0.1l-0.1,0
			c0-0.3-0.1-0.6,0-0.9c0-0.1,0-0.1,0-0.2c0.2-0.1,0.4,0,0.6,0c0.5,0,1.1,0,1.6,0c0.2,0,0.4,0,0.6,0c0.7,0.1,1.4,0.1,2,0.1
			c0.2,0,0.5,0,0.7,0c0.1-0.1,0-0.2,0.1-0.3c-0.1-0.1-0.2-0.3-0.3-0.4l0.3,0C48.5,61.7,48.5,61.7,48.4,61.7"/>
		<path class="st0" d="M48.1,64.2c0,0.1-0.1,0.2,0,0.2c0.1,0,0.2,0,0.3,0c-0.1,0.3,0.1,0.6,0,0.8c0.1,0.1-0.1,0.2,0,0.3
			c-0.4,0.1-0.9,0-1.4,0c-0.3-0.1-0.5,0-0.8-0.1c-0.1,0-0.1,0.1-0.2,0c-0.1,0-0.3,0-0.4,0c-0.2,0-0.4,0-0.5,0c-0.3,0-0.9,0.1-1.3,0
			c-0.2,0-0.5,0-0.7,0c-0.1-0.1,0-0.3,0-0.4c0-0.1,0-0.2,0-0.3c0.1-0.1,0-0.1,0-0.2c0.2,0,0.4,0,0.6,0c0.1,0,0.3,0,0.4,0
			c0.3,0.1,0.6,0,1,0c0.4-0.1,0.8,0,1.3,0c0.5,0,0.8,0,1.3,0l0.1-0.1l-0.3-0.4C47.5,64.1,47.8,64.1,48.1,64.2
			C48,64.2,48,64.2,48.1,64.2"/>
		<path class="st0" d="M48.1,66.6c0.1,0.1,0.2,0.1,0.1,0.2c0.1,0,0.2,0.1,0.3,0.1c-0.1,0.4,0.1,0.9,0,1.3c-0.1,0-0.3,0.1-0.3,0
			c0,0.1-0.1,0-0.1,0c0,0,0,0-0.1-0.1c-0.1,0-0.1-0.1-0.2-0.1c-0.1,0.1-0.3,0-0.4,0.1c0,0-0.1,0-0.1,0l0,0h0l0,0
			c-0.2-0.2-0.5-0.2-0.7-0.2c0,0,0-0.1-0.1-0.1v0c-0.1,0-0.2-0.1-0.2-0.1c-0.1,0.1-0.2,0.3-0.4,0.3c0-0.1-0.1,0-0.1-0.1
			c0-0.1,0-0.2,0-0.3c-0.4,0.1-0.7-0.1-0.9-0.3c-0.1-0.1-0.2,0-0.3,0c0,0.1-0.2,0-0.2,0.1l-0.2,0c0-0.1-0.1-0.2-0.2-0.2l-0.2,0.1
			c-0.1-0.1-0.1-0.2-0.2-0.2c-0.1,0-0.3-0.1-0.4-0.1c0-0.1,0-0.3,0-0.4c0.1-0.1,0.1,0,0.2-0.1c0.6,0.1,1.2,0,1.8,0.1
			c0.1-0.1,0.2,0,0.3,0c0.1,0.1,0.2,0,0.3,0c0.3,0,0.5,0,0.8,0.1c0.1-0.1,0.2,0.1,0.3,0c0.2,0.1,0.5,0,0.6,0.1
			c0.1-0.1,0.3,0,0.4-0.2c-0.1-0.1-0.2-0.2-0.3-0.4c0.2,0,0.4,0,0.6,0L48.1,66.6"/>
		<path class="st0" d="M48.6,69.2l0,0.2c-0.2,0-0.3-0.1-0.5-0.1l-0.1,0c0-0.1,0-0.2,0-0.3l0.1,0C48.2,69.2,48.6,69,48.6,69.2"/>
	</g>
</g>
</svg>
