<svg xmlns="http://www.w3.org/2000/svg" viewBox="0 0 256 256"><defs><style>.background{fill:#21409a}.ring{fill:#fff}.text{fill:#21409a}.county{fill:#fff}.accent{fill:#e8c26d}</style></defs><title>Daviess County Kentucky</title><path class="background" d="M128 256C57.4 256 0 198.6 0 128S57.4 0 128 0s128 57.4 128 128-57.4 128-128 128z"/><path class="ring" d="M128 4.9C60.1 4.9 4.9 60.1 4.9 128S60.1 251.1 128 251.1 251.1 195.9 251.1 128 195.9 4.9 128 4.9zm0 214.8c-50.6 0-91.7-41.1-91.7-91.7S77.4 36.3 128 36.3s91.7 41.1 91.7 91.7-41.1 91.7-91.7 91.7z"/><path class="text" d="M16.2 94.7c1.1-3.5 2.7-6.2 5.1-7.6 1.7-.9 4.2-1.4 6.6-.6 7.1 2.2 8.5 8.6 6.5 15.2l-2.3 7.4-1.1-.3c.5-2.1.3-2.4-2.7-3.4l-9.4-2.9c-3.1-1-3.4-.8-4.1 1l-1.1-.3 2.5-8.5zm13.6 5.7c2.5.8 3.2.3 3.7-1.1.8-2.5-1.2-5.8-6.3-7.4-6.2-1.9-8.8.7-9.6 3.1-.2.7-.2 1.1-.2 1.3 0 .2.7.4 1.4.6l11 3.5zm13-21.5l.3-.8c.4-1 .2-1.2-.9-1.4L39 76l-2.4 4.3 2.1 2.2c.9 1 1.2 1.1 2 0l.5-.7 1 .6-3.5 6.1-1-.6c.6-1.4.7-1.9-1-4l-10.5-13 .7-2 5.9 1c3.7.7 7.4 1.3 10.7 1.8 2.7.5 3.1.1 4-1.1l1 .6-4.7 8.2-1-.5zm-7.5 0l1.9-3.3-5.9-1.2v.1l4 4.4zM53.4 66c-5.4-1.9-12.9-4.6-15.8-5.6-2.6-.9-3.1-.6-4.2.4l-.9-.8 6.3-7.4.9.8-.6.9c-.6.9-.4 1.1.6 1.5 1.6.7 7.7 2.7 10.6 3.8-1.3-2.4-4.4-7.5-5.2-8.8-1-1.7-1.3-1.7-2.3-.8l-.7.6-.9-.8 4.7-5.5.9.8c-1 1.4-1.1 1.9.2 4.5.2.4 4.6 9 7.8 14.7L53.4 66zM66 47c2 2.5 2.4 2.5 4.1 1.4l.7.9-7.6 6.1-.7-.9c1.5-1.4 1.6-1.8-.5-4.3l-6.2-7.7c-2-2.5-2.4-2.5-4.1-1.4l-.7-.9 7.6-6.1.7.9c-1.5 1.4-1.6 1.8.5 4.3L66 47zm2.9-14.1C67.3 30 67 30 65.2 30.8l-.6-1 12.4-7c.3.4 1.5 2.3 2.7 4.2l-1.1.7c-1-1.1-1.7-1.7-2.3-1.9-.7-.2-1.6.1-3 .9l-.5.3c-1 .6-1 .6-.5 1.5l2.8 5 1.3-.7c2.2-1.3 2.2-1.5 1.4-3.6l1.2-.6 3.5 6.2-1.2.6c-1.5-2.2-1.7-2.3-4-1l-1.3.7 2.4 4.3c.8 1.4 1.2 2 1.8 2 .5 0 1.2-.3 2-.8 1-.6 2.1-1.4 2.3-2.3.2-.7.1-1.9-.2-3.4l1.3-.5c.6 1.4 1.5 4.3 1.7 5.2L74 47l-.6-1c1.9-1.3 2-1.6.5-4.4l-5-8.7zm21.3-1.3c1.1 1.5 3.9 4.1 6.7 3.1 1.5-.5 2.3-1.8 1.7-3.7-.6-1.7-2-2.2-4-2.5l-.5-.1c-2.7-.3-5.8-.9-6.8-3.9-1.1-3.2.4-6.6 4.9-8.1.9-.3 1.8-.5 2.7-.5.7 0 1.2-.1 1.6-.1.5 1.1 1.1 2.4 2.1 4.2l-1.2.6c-1.2-1.7-2.9-3.4-5.2-2.6-1.5.5-2.1 1.9-1.7 3.3.5 1.4 1.9 1.9 4 2.1l.7.1c3 .3 5.7 1 6.9 4.4 1.2 3.5-.8 7-5.2 8.5-1.1.4-2.4.5-3.2.5-.9 0-1.6 0-2-.1-.7-1.2-1.5-2.6-2.5-4.4l1-.8zm17.7-5.1c.9 1.6 3.1 4.7 6 4.3 1.5-.2 2.6-1.4 2.3-3.3-.3-1.8-1.5-2.6-3.5-3.1l-.5-.1c-2.6-.8-5.6-1.9-6-5.1-.5-3.4 1.6-6.4 6.2-7.1.9-.1 1.9-.1 2.8 0 .7.1 1.2.1 1.6.2.3 1.1.7 2.6 1.3 4.5l-1.3.4c-.9-1.9-2.3-3.8-4.6-3.5-1.5.2-2.4 1.5-2.2 2.9.2 1.5 1.5 2.2 3.5 2.8l.7.2c2.9.9 5.5 2 6 5.5.5 3.6-2 6.7-6.6 7.4-1.2.2-2.4.1-3.3 0-.9-.2-1.6-.3-2-.4-.4-1.3-1-2.9-1.7-4.8l1.3-.8zm43.5-7.2c-.4-3.8-2.1-5-4.2-5.3-3.6-.5-6.3 3-6.9 7.3-.8 5.5 1.4 9.3 4.4 9.8 2.6.4 4.3-1.1 6.3-4.1l1.3.4c-.6 1.7-1.7 4.1-2.4 5.2-.8.1-3.5.3-5.5.1-8-1.1-10.4-6.6-9.7-11.4.9-6.1 6.3-9.7 13.2-8.7 2.5.4 4.4 1.2 5.2 1.5 0 1.7-.1 3-.2 5.2h-1.5zM176.8 32c-2.4 6-7.9 8.1-13.3 6-5.6-2.2-7.7-7.8-5.6-12.9 1.8-4.5 6.9-8.5 13.5-5.9 5.1 2 7.5 7.3 5.4 12.8zm-13.4-5.8c-2 5-1.6 9.5 1.2 10.6 2.4.9 4.6-.8 6.6-5.9 2.2-5.6 1.4-9.5-1-10.4-2.1-.9-4.8.8-6.8 5.7zm32 6.6l-.7 1c-1.7-1-2-1-3.9 1.7l-3.6 5c-2.5 3.5-2.7 6.3-.5 7.9 2.5 1.8 5.4.6 8.3-3.4l1-1.5c1.7-2.4 2.6-3.8 3-4.6.5-.9.1-1.7-1.5-3l.7-1 6.2 4.4-.7 1c-1.2-.8-2.1-.9-2.8-.1-.6.7-1.7 2-3.4 4.4l-1.3 1.9c-1.5 2.1-3.5 4-5.9 4.6-1.9.4-4.2-.3-5.9-1.5-1.8-1.3-3.2-2.8-3.7-4.6-.5-2 .1-4.1 2.2-7l3.8-5.3c1.9-2.6 1.8-2.9.2-4.3l.7-1 7.8 5.4zm11.2 37.9l-1.7-2 3.5-17.6-4.2 3.6c-2.4 2.1-3.6 3.2-4.2 3.9-.7.8-.5 1.7.8 3.2l-.9.8-4.9-5.7.9-.8c.9 1 1.7 1.3 2.6.7.8-.5 2.1-1.5 4.5-3.6l4.2-3.6c1.7-1.4 1.9-1.7 2.2-2.8.2-.8-.1-1.5-.8-2.3l.9-.8 4.3 5-2.9 15.7 3-2.6c2.4-2.1 3.6-3.2 4.2-3.9.7-.8.5-1.7-.8-3.2l.9-.8 5 5.8-.9.8c-1-1.1-1.8-1.4-2.7-.8-.8.5-2.1 1.5-4.5 3.6l-8.5 7.4zm12.8 12c-2.9 1.5-2.9 1.8-1.9 4.1l-1 .5-4.9-9.3 1-.5c1.3 2 1.6 2.1 4.4.6l11.6-6.1-.2-.5c-.9-1.8-1.6-2.3-2.3-2.5-.6-.1-1.4-.1-3.1.4l-.6-1.1c2.3-1.1 4.2-1.9 5.6-2.5l.4.8c-.4.7-.3 1 .1 1.7l5.6 10.6c.4.7.6.7 1.3.9l.4.8c-1.1.6-3.3 1.9-5.2 3.1l-.7-1.1c1.4-1.2 1.9-1.9 2.2-2.5.2-.7-.1-1.7-.7-2.9l-.3-.6-11.7 6.1zm7.6 20.4c-3.1.9-3.3 1.2-2.8 3.6l-1.1.3-2.8-10 1.1-.3c.8 2.2 1.1 2.4 4.2 1.5l2.5-.7c.9-.3 1.1-.3 1.7-.9 1.1-.9 2.7-2.5 5.6-5.4 1.6-1.6 1.6-2 1.4-3.3l1.1-.3 2.5 8.9-1.1.3-.5-1.1c-.3-.7-.6-.5-1.1 0-2 1.8-3.5 3.1-5.2 4.7 1.3.2 4.4.7 6.7 1 .8.1 1.3.1 1.1-1l-.2-1.2 1.1-.3 1.9 7-1.1.3c-.6-1.6-1.1-2-3.1-2.5-2.1-.6-4-1.1-6.4-1.5-1.1-.2-1.3-.2-2.6.1l-2.9.8zM46 204.7c-2.3 2.2-2.2 2.5-.9 4.1l-.8.8-6.4-6.5.8-.8c1.5 1.2 1.8 1.3 4-.9l6.9-6.8c2.3-2.2 2.2-2.5.9-4.1l.8-.8 6.4 6.5-.7.8c-1.5-1.3-1.8-1.3-4.1.9l-3.3 3.2c3.2-.2 6-.4 8.8-.7.7-.1 1.3-.3.8-.9l-.7-.9.8-.8 5.5 5.6-.8.8c-1.3-1.1-2-1.6-4.2-1.7-2.2-.1-4.3-.1-6.2.1-.7 3.2-1.3 6.5-1.8 9.6-.4 2.6-.2 3.2.5 4.2l-.8.8-4.7-4.8c.6-2.1 1.7-7.1 2.5-10.9l-3.3 3.2zm21.7 6.4c1.7-2.7 1.6-3 .1-4.2l.6-1 11.6 7.6c-.2.4-1.3 2.3-2.4 4.2l-1.1-.6c.5-1.4.7-2.2.6-2.9s-.8-1.4-2.1-2.2l-.4-.3c-.9-.6-1-.6-1.5.2l-3.1 4.7 1.2.8c2.1 1.4 2.3 1.3 3.7-.4l1.1.7-3.8 5.8-1.1-.7c1.2-2.3 1.2-2.5-.9-3.9l-1.2-.8-2.6 4c-.8 1.3-1.2 1.9-.9 2.4.3.5.8.8 1.6 1.3 1 .6 2.2 1.2 3.1 1 .7-.2 1.7-.8 2.9-1.7l1 .9c-.9 1.1-3.1 3.3-3.7 3.8l-12.5-8.2.6-1c2 1.1 2.3 1 4-1.6l5.2-7.9zm26.8 29.4l-2.4-.9-5.4-16.8h-.1l-1.9 5.1c-1.1 2.9-1.5 4.4-1.7 5.3-.2 1 .4 1.6 2.2 2.4l-.4 1.1-6.8-2.5.4-1.1c1.2.4 2.1.3 2.6-.6.4-.8 1.1-2.3 2.2-5.2l1.9-5.1c.8-2 .8-2.4.6-3.4-.2-.7-.8-1.2-1.8-1.6l.4-1.1 6.1 2.3 4.9 14.8h.1l1.4-3.7c1.1-2.9 1.5-4.4 1.7-5.3.2-1-.4-1.6-2.2-2.4l.4-1.1 7 2.6-.4 1.1c-1.4-.5-2.3-.3-2.7.6-.4.8-1.1 2.3-2.2 5.2l-3.9 10.3zm21.7-.9c-.4 3.1-.2 3.4 2.2 3.9l-.1 1.1-10.2-1.3.1-1.1c2.4.1 2.6-.1 3-3.2l1.6-12.7-.5-.1c-1.9-.2-2.8 0-3.3.5-.4.4-.8 1.1-1.4 2.7l-1.2-.2c.4-2.4.9-4.4 1.1-5.9l.9.1c.4.7.6.8 1.4.9l11.6 1.5c.8.1.9-.1 1.5-.6l.9.1c-.1 1.2-.3 3.7-.4 5.9l-1.3-.1c-.2-1.8-.4-2.6-.8-3.1-.4-.6-1.4-.9-2.8-1.1l-.7-.1-1.6 12.8zm21.1-14.2l.1 1.1c-1.9.4-2.1.6-1.8 3.7l.6 6c.4 4.1 2.1 6.4 4.7 6.1 3-.3 4.4-3 3.9-7.8l-.2-1.8c-.3-2.9-.6-4.5-.8-5.3-.2-1-1.1-1.3-3-1.2l-.1-1.1 7.4-.7.1 1.1c-1.4.2-2.1.7-2.2 1.7 0 .9 0 2.5.3 5.4l.2 2.2c.2 2.5 0 5.2-1.4 7.2-1.1 1.5-3.3 2.5-5.3 2.7-2.1.2-4.1 0-5.7-1-1.7-1.1-2.5-3.1-2.9-6.6l-.6-6.4c-.3-3.2-.6-3.3-2.6-3.3l-.1-1.1 9.4-.9zm31.3-1.9c-2-3.1-4.1-3.4-6-2.7-3.3 1.1-4.1 5.5-2.8 9.4 1.8 5.1 5.4 7.5 8.2 6.5 2.4-.8 3.3-2.9 3.6-6.4l1.3-.2c.2 1.8.4 4.4.2 5.6-.6.4-2.9 1.9-4.8 2.5-7.5 2.6-12-1.1-13.6-5.6-2-5.7 1.2-11.2 7.6-13.4 2.3-.8 4.4-.9 5.2-1 .7 1.4 1.3 2.6 2.2 4.7l-1.1.6zm17.1.8c1.7 2.7 2 2.7 3.9 1.8l.6 1-7.7 4.9-.6-1c1.5-1.2 1.6-1.5-.1-4.1l-5.2-8.2c-1.7-2.7-2-2.7-3.8-1.8l-.6-1 7.7-4.9.6 1c-1.5 1.2-1.6 1.5.1 4.2l2.4 3.9c.5-3.2.9-6 1.1-8.8.1-.7 0-1.3-.7-1l-1 .5-.6-1 6.6-4.2.6 1c-1.3 1-2 1.7-2.5 3.7-.5 2.1-1 4.2-1.2 6.1 3 1.4 6.1 2.6 9 3.7 2.5.9 3.1.9 4.2.4l.6 1-5.7 3.6c-1.9-1-6.6-3.2-10.1-4.7l2.4 3.9zm23.7-19c2.2 2.2 2.6 2.2 4.4.6l.8.8-7.2 7.2-.8-.8c1.5-1.7 1.5-2.1-.7-4.3l-1.8-1.8c-.7-.7-.8-.8-1.6-1.1-1.4-.5-3.4-1.1-7.3-2.1-2.1-.6-2.4-.4-3.5.4l-.8-.8 6.4-6.4.8.8-.7 1c-.4.6-.1.7.5 1 2.5.8 4.3 1.5 6.6 2.1-.4-1.2-1.5-4.1-2.3-6.2-.3-.8-.6-1.1-1.4-.4l-1 .8-.8-.8 5-5 .8.8c-1 1.3-1.1 1.9-.6 3.8.6 2.1 1 3.9 1.8 6.1.4 1.1.4 1.3 1.3 2.1l2.1 2.2z"/><path class="county" d="M165.9 75.5l-.2.3c-.1.2-.3.3-.5.3s-.4-.1-.6-.2l-1.3-1.4c-.2-.2-.3-.6-.1-.9l.4-.6.2-1c0-.1 0-.2.1-.2l.3-.5-.2-.2c-.2-.2-.2-.4-.2-.6s.2-.4.4-.5l1.2-.5.5-.7.1-.1c-.1-.1-.1-.2-.1-.3-.4-.9.2-1.3.4-1.4s.5-.3.7-.4c0-.1.1-.3.1-.4 0-.2.1-.4.3-.5-.2-.1-.4-.2-.5-.5l-.8-2.4c-4.3 2.2-13.8 7.2-15.4 9.1-1.9 2.3-2.7 3.7-2.6 4.8 0 .3.1.8.3 1.4.6 2.6 1.1 5.1.6 6.4-.2.6-.6 1.7-1 2.8-.6 1.5-1.4 3.9-1.5 4.3 0 .6-1.5 8.5-2.2 9.6-.2.3-.7 1.7-1.1 2.9-.8 2.2-1.3 3.8-1.8 4.5-.8 1.1-4.2 4.5-6.8 5.7-4.2 2.1-7.4 2.7-9.5 1.7-2.8-1.3-3.5-3.1-3.7-5.5-.2-2.1-1.2-5.2-2.1-7-2.2-4.3-4.1-7.4-5-8-1.5-.9-3-1.1-4.8-.8-2.4.4-7.3-.9-8.5-1.3-1.5-.5-9-4.6-10.7-6-.3-.3-1-.8-1.7-1.3-3-2.4-5.8-4.6-6.8-6.1-1.1-.7-2.1-1.4-3.1-2.2l-.5-.4c-.8-.6-2.8-2-4-2.7L72.3 84l-3.5 17.8 1.6 1.1c1.2.1 3.4.4 3.7 1.8.2 1.3.1 2.4-1.4 3.7-.4.4-.6.8-.6 1.2 0 .3.2.4.2.4.4.2 1.2.2 1.5.2h.2c.5 0 1 .4 1.2.5.2.1.3.4.3.6l-.1 2.5c0 .1.1.7 1.2.8 1.5.1 3 0 3.8-.1h.5s2-.1 2.5 1c.3.6.1 1.3-.6 2-1.4 1.4-2.8 2.7-3.2 3-.6 1-1.4 2.5-1.5 2.9-.2.8-1.2 1.6-2.4 2.4-.1.1-.2.2-.3.2-.5.3-4.8 3.5-5.2 3.7l-1.2 1c-.1.1-.2.1-.3.1-.5.1-4.9 1.4-6.5 1.4-1.1 0-3.9.1-5.2.2h-.9c-.5 0-2.7.2-3.6.7-1.2.7-4 3-4.3 3.4-.3.5-.7 1.9-.5 3 .2 1.5.1 3.9-.5 5.2-.5 1.2-2.5 4.5-2.7 4.9-.1.1-.3.7-.6 1.3l34.5 18.5 7.3 3.7 27.5 12 2.6 1.1c.1 0 .2.1.2.2l2.4 2.4 1.9.8 8.2 1.7h.6c.2 0 .4.1.6.3s.4.5.5.6h1.1c.1 0 .2 0 .4.1l1.1.6 6.1-.3c.1-.3.4-.6.8-.5h.4v-.4c0-.4.3-.7.7-.7.1.3.2.3.4.3.7 0 1.9.1 2.5.4.6.4 4.2 2.4 4.2 2.4h.1l1.5 1.1 8.9-6.8 13.1-14.8 3.3-3.5c.2-.2.4-.3.7-.2l.6.1c.2 0 .3.1.4.3h.3c.2 0 .4 0 .5.2l.3.2c.1.1.1.2.2.2l.1.3.3.1c.1 0 .2.1.3.2.3 0 .6-.1.9-.1.2 0 .5 0 .6.2.2.2.2.4.2.6v.3c.2-.1.4 0 .6.1l.2.2.4-.2c0-.2.1-.4.4-.6.2-.1.5-.1.7 0l.6.3.1-.3c.1-.1.2-.3.3-.3l.6-.3.1-.2c-.1-.1-.2-.2-.2-.3-.1-.3-.1-.6 0-.8.1-.2.3-.5.6-.6.4-.1.6.1.7.2 0 0 .1.1.2.1.3.2.6.2.7.2.2-.1.4-.2.6-.2h.8v-.3c0-.7.4-1.3 1-1.6.1-.1.5-.4.7-.7.1-.1.5-.6 1-.6v-.3c0-.2.1-.4.3-.6l.5-.4.1-.1.4-.2c.2-.1.4-.1.5 0l.4-.2c.2-.1.5-.1.7 0 .1 0 .1.1.1.1l.7-.1H194.6l.2-.9c0-.2.1-.3.3-.4l.7-.5c.2-.2.5-.2.7-.1.2.1.4.4.4.6v.1l.8-.3h.1l.8-.2 2.7-1.5 2.8-3.1.1-.1 2.1-1.4c.1-.1.3-.1.4-.1h2.1c.2 0 .6-.5.8-.7l.2-.2.2-.2c.2-.3.6-.9 1.2-.8h.5l-13.4-12c-.2-.1-.2-.3-.2-.5s.1-.4.3-.5l12.2-10.3 1.7-19.2-7.5-10.4s-.1-.1-.1-.2l-2.6-6.6-7 1.3-.4.4c-.3.3-.7.3-1 0 0 .3-.1.6-.3.8v.1c-.2.5-.6.6-.8.6-.1.1-.2.3-.3.4-.2.2-.5.2-.7.2-.1 0-.1.1-.2.1l-.1.1c-.2.1-1 .5-1.5-.1-.1 0-.1 0-.3-.1h-.2c-.3 0-.7 0-1-.3h-.1c-.6-.1-1-.4-1-.9-.3 0-.6 0-.8-.3-.1-.1-.3-.3-.3-.7v-.4-.4h-.3c-.3.1-.7.1-1-.2-.2-.1-.3-.3-.3-.6 0-.2-.2-.7.1-1.2v-.3c0-.2-.1-.4-.1-.6 0-.8.6-1.2.7-1.3 0-.1 0-.1-.1-.2 0-.1-.2-.4 0-1.4.1-.3.4-.6.7-.6h.4v-.3c.1-.2.2-.3.3-.4v-.1c0-.1 0-.3.1-.4l.2-.3-.4-.4c-.3-.3-.3-.7 0-1l.4-.4c0-.4-.1-.7-.2-1-.4-.2-.8-.4-.9-.9 0-.3.1-.6.3-.8.4-.3.9-.5 1-.5h.4s.1 0 .3.1c.1 0 .1-.1.2-.1h.1v-.7c0-.3.2-.6.5-.7l.5-.2h.2c.1-.2.2-.4.3-.7 0-.1.1-.1.1-.2.1-.1.2-.2.2-.3 0-.1.1-.3.1-.6l-.1-.1v-.1l-.2-.3-.2.2c-.1.1-.2.1-.2.1l-1.1.3c-.3.1-.6 0-.7-.2l-.8-.9-.6-.3c-.2-.1-.3-.3-.4-.5-.1-.3-.2-.8-.2-1v-.1c-.2-.7-.1-1.1.3-1.3v-.1c-.3.1-.8.2-1.2-.1-.2-.1-.3-.3-.4-.5 0 0-.1-.1-.1-.2-.2-.3-.4-.7-.2-1.1.1-.2.5-.6.9-.9-.2-.1-.3-.3-.3-.5-.4.1-.7-.1-.8-.5-.2 0-.4 0-.5-.1-.1-.1-.2-.2-.3-.4l-.5.1h-.4l-.8-.3-.7-.2c-.1 0-.2-.1-.3-.2l-.4-.4-.7.1-.8.4-.5.6c-.2.2-.5.3-.8.2l-.3.1c-.1 0-.2.1-.3.1h-.6l-.2.3c0 .1-.1.1-.1.1l-1 1.1c-.2.2-.4.2-.7.2-.2-.1-.3-.2-.4-.3h-.1v.4c0 .4-.2.7-.6.8l-6.1.7-.6.5z"/><path class="accent" d="M79.6 77c1.1.8 2.1 1.6 3.1 2.2.1.1.2.2.2.3.8 1.4 4.4 4.2 6.5 5.9.8.6 1.4 1 1.7 1.4 1.5 1.2 8.9 5.3 10.2 5.7 1.4.5 5.9 1.5 7.8 1.2 2.2-.4 4 0 5.8 1 1.6 1 4.2 5.8 5.6 8.6 1 2 2.1 5.2 2.3 7.6.2 2.1.7 3.3 2.9 4.4 1.1.5 3.5.7 8.2-1.7 2.1-1.1 5.4-4.2 6.2-5.3.4-.6 1.1-2.6 1.6-4.1.6-1.8 1-2.8 1.3-3.2.5-.8 2-8 2-8.8 0-.6.6-2.2 1.5-4.7.4-1.1.8-2.1 1-2.7.3-1.1-.3-4.1-.7-5.7-.1-.6-.2-1.1-.3-1.5-.2-1.6.6-3.3 2.9-5.9 2.3-2.7 16-9.5 16.6-9.8.1 0 .2-.1.3-.1l-.1-.4c-.3-.1.2-.2.3-.3.9-.6.7-1.6-.3-2.2-.9-.6-2.3-.1-9.6 4-7.2 4-8.5 5.5-8.9 6-2.1 2.5-4 5.1-3.6 8.2.1.4.2 1 .3 1.7.5 2.3.7 3.8.7 4.4-.2.6-.5 1.5-.9 2.5-1.2 3.3-1.6 4.5-1.7 5.5s-1.3 6.5-1.7 7.7c-.4.7-.8 1.7-1.4 3.6-.3.9-1 2.9-1.3 3.4-.7 1-3.6 3.6-5.2 4.4-4.3 2.2-5.7 1.7-5.7 1.6-1-.5-1.2-.7-1.3-2-.2-2.8-1.5-6.4-2.6-8.6-4.1-8.2-5.9-9.3-6.6-9.7-2.4-1.4-4.9-1.9-7.7-1.4-1.1.2-4.9-.6-6.5-1.1-1.3-.5-8.2-4.3-9.3-5.2-.4-.4-1-.8-1.8-1.5-1.3-1-5.1-4-5.7-5-.3-.5-.7-1-1.2-1.3-1-.6-1.9-1.3-2.9-2.1l-.5-.4c-1-.7-2.7-1.9-3.6-2.5-.4-.4-.9-.6-1.4-.8-1.4-.3-1.6-.6-2.6.7-.3.4.2 1.1.8 1.9v.4c.5.3 3.7 2.4 4.8 3.3l.5.4z"/></svg>