<?xml version="1.0" encoding="UTF-8" standalone="no"?>
<!-- Created with Inkscape (http://www.inkscape.org/) -->
<svg
   xmlns:svg="http://www.w3.org/2000/svg"
   xmlns="http://www.w3.org/2000/svg"
   version="1.0"
   width="1500"
   height="1125pt"
   id="svg2">
  <defs
     id="defs4" />
  <g
     id="layer1">
    <path
       d="M 192.5,968.5 L 166.5,1039.5 L 269,1047 L 366,1049.5 L 453.5,1046 L 452.5,984.5 L 453.5,915.5 L 458.56349,777.47944 L 324.25,771.75 L 260.5,770.5 L 192.5,968.5 z "
       style="opacity:1;color:#000000;fill:#d7ffd9;fill-opacity:1;fill-rule:evenodd;stroke:#000000;stroke-width:3;stroke-linecap:butt;stroke-linejoin:round;marker:none;marker-start:none;marker-mid:none;marker-end:none;stroke-miterlimit:4;stroke-dasharray:none;stroke-dashoffset:0;stroke-opacity:1;visibility:visible;display:inline;overflow:visible"
       id="path2769" />
    <path
       d="M 67.775685,499.74996 L 66,759 L 264,760 L 264,760 L 329.51175,576.74097 L 356.49998,500.002 L 231.5,499 L 160.5,498.25 L 67.775685,499.74996 z "
       style="opacity:1;color:#000000;fill:#ffffc3;fill-opacity:1;fill-rule:evenodd;stroke:#000000;stroke-width:3;stroke-linecap:butt;stroke-linejoin:round;marker:none;marker-start:none;marker-mid:none;marker-end:none;stroke-miterlimit:4;stroke-dasharray:none;stroke-dashoffset:0;stroke-opacity:1;visibility:visible;display:inline;overflow:visible"
       id="path5436" />
    <path
       d="M 67.775685,499.74996 L 68,467 L 71.838585,304.49988 L 423.4993,307.50626 L 415.77878,330.66782 L 356.32753,500.25007 L 231.5,499 L 160,498.5 L 67.775685,499.74996 z "
       style="opacity:1;color:#000000;fill:#d7ffd9;fill-opacity:1;fill-rule:evenodd;stroke:#000000;stroke-width:3;stroke-linecap:butt;stroke-linejoin:round;marker:none;marker-start:none;marker-mid:none;marker-end:none;stroke-miterlimit:4;stroke-dasharray:none;stroke-dashoffset:0;stroke-opacity:1;visibility:visible;display:inline;overflow:visible"
       id="path5438" />
    <path
       d="M 71.838585,304.49988 L 423.4993,307.50625 L 441.23462,254.30029 L 478.9353,134.3185 L 476.05963,134.26891 L 471.10989,132.50114 L 467.75113,131.97081 L 462.6246,129.84949 L 458.2052,128.78883 L 453.96255,129.31915 L 449.01282,130.20305 L 435.75455,130.20305 L 430.98157,127.37462 L 428.6835,125.78363 L 426.03183,123.48553 L 416.83945,122.77843 L 412.77359,121.71777 L 401.81342,115.35381 L 393.32816,116.41447 L 385.19641,116.59124 L 358.85669,112.17182 L 345.2449,111.46472 L 333.57761,110.0505 L 312.01086,105.98464 L 305.47012,104.57043 L 299.99005,103.68654 L 300.16684,101.38845 L 295.04031,100.50456 C 295.0403,100.50456 286.7318,98.206466 285.67114,98.029689 C 284.61048,97.852919 274.53421,92.903165 274.53421,92.903165 L 274.00388,90.428291 L 263.39728,88.130196 L 244.12862,88.837303 L 233.34525,87.776642 L 228.04195,85.655319 L 219.55666,85.478546 L 213.01591,83.710777 L 208.77328,80.528793 L 207.35905,78.584251 L 199.05057,77.170036 L 196.39891,74.518387 L 187.56007,73.104172 L 179.07478,70.629303 L 173.77148,68.50798 L 171.82695,66.386658 L 167.40753,64.442116 L 163.34167,63.911785 L 158.21513,60.906582 L 154.85638,58.96204 L 150.26019,57.194275 L 146.01755,56.31039 L 140.53748,56.133614 L 135.0574,58.431709 L 127.27922,58.254932 L 123.03658,57.017494 L 118.08683,54.719398 L 115.96551,53.12841 L 111.72287,52.774857 L 109.248,54.542622 L 105.71246,54.542622 L 95.812965,60.022701 L 89.97934,61.613689 L 83.968933,62.851128 L 73,63 L 73,63 L 74,213 L 71.838585,304.49988 z "
       style="opacity:1;color:#000000;fill:#ffd7df;fill-opacity:1;fill-rule:evenodd;stroke:#000000;stroke-width:3;stroke-linecap:butt;stroke-linejoin:round;marker:none;marker-start:none;marker-mid:none;marker-end:none;stroke-miterlimit:4;stroke-dasharray:none;stroke-dashoffset:0;stroke-opacity:1;visibility:visible;display:inline;overflow:visible"
       id="path2788" />
    <path
       d="M 478.9353,134.3185 L 423.55696,307.3333 L 356.38182,500.20924 L 342.49051,540.70999 L 599.9801,549.16382 L 604.22275,398.19652 L 609.8796,236.97617 L 609.86556,155.49689 L 607.58148,154.59824 L 604.39954,153.89113 L 598.91943,150.88593 L 597.32843,149.11815 L 595.20715,148.94138 L 593.26257,147.17361 L 587.60571,140.10254 L 586.89862,136.56702 L 584.24701,135.68314 L 578.59015,135.85989 L 578.05981,136.21346 L 575.5849,136.21346 L 574.34747,135.50635 L 570.10486,134.79924 L 568.51385,134.79924 L 566.21576,136.56702 L 561.79633,136.56702 L 553.13428,139.5722 L 544.11865,141.16319 L 534.74951,141.51675 L 527.14813,139.39545 L 502.92969,139.92577 L 497.27283,138.68832 L 486.31268,134.44569 L 478.9353,134.3185 z "
       style="opacity:1;color:#000000;fill:#d7efff;fill-opacity:1;fill-rule:evenodd;stroke:#000000;stroke-width:3;stroke-linecap:butt;stroke-linejoin:round;marker:none;marker-start:none;marker-mid:none;marker-end:none;stroke-miterlimit:4;stroke-dasharray:none;stroke-dashoffset:0;stroke-opacity:1;visibility:visible;display:inline;overflow:visible"
       id="path5450" />
    <path
       d="M 879.99439,361.07341 L 883.80716,355.21243 L 874.16077,348.34549 L 873.1001,346.40094 L 866.73615,342.86542 L 863.37738,341.27441 L 858.60443,336.85501 L 845.69971,332.25882 L 838.62866,329.60715 L 833.85565,326.77872 L 826.60785,324.12708 L 815.11731,318.47021 L 817.41547,314.58115 L 815.29413,314.58115 L 813.34961,316.87924 L 804.86432,312.6366 L 798.85388,308.04041 L 787.3634,298.49445 L 777.28711,288.59497 L 774.28192,284.88266 L 762.9682,274.27606 L 750.41705,262.25525 L 742.4621,255.18417 L 735.21429,250.41119 L 730.6181,245.63823 L 722.8399,241.04204 L 716.29919,235.56197 L 706.92999,231.49609 L 698.97504,226.01602 L 695.26276,227.96056 L 694.90918,230.61221 L 698.62152,228.13734 L 704.27838,232.02641 L 708.34424,234.67807 L 707.8139,236.62262 L 704.45514,236.44585 L 700.21246,240.5117 L 696.85376,241.21881 L 695.26276,241.74915 L 693.14142,239.98138 L 692.78784,237.5065 L 689.07556,235.56197 L 685.7168,237.32973 L 680.23669,242.98659 L 675.81732,246.34534 L 669.9837,251.29507 L 666.62494,252.17897 L 666.62494,249.88087 L 673.51923,244.75435 L 678.46893,239.62782 L 678.29218,234.67807 L 677.23151,232.73354 L 679.5296,232.73354 L 679.35284,230.43542 L 676.52441,227.60701 L 670.51404,226.72311 L 669.80688,225.48569 L 669.80688,224.60181 L 674.5799,223.36436 L 674.22632,221.5966 L 671.39789,220.71272 L 665.38745,219.82883 L 664.15002,218.23784 L 668.92303,217.53075 L 669.27655,215.40942 L 665.91779,215.40942 L 662.38226,216.2933 L 660.43774,215.40942 L 656.01831,217.35396 L 654.78088,219.47528 L 651.59888,219.47528 L 644.70459,222.83405 L 639.04773,227.78378 L 637.45679,229.37477 L 630.91602,229.37477 L 626.31982,230.78899 L 623.13788,232.2032 L 617.48102,233.08708 L 615.71326,236.44585 L 615.35968,239.98138 L 617.12744,241.57237 L 616.42035,242.98659 L 610.58673,243.34013 L 611.11707,237.15295 L 611.29382,231.14255 L 614.82935,228.13734 L 620.83978,226.19279 L 626.85016,224.77858 L 628.79474,223.71793 L 628.79474,225.13213 L 627.02692,226.8999 L 627.55725,228.13734 L 632.68378,227.07668 L 637.8103,223.54114 L 637.98706,222.30371 L 631.97668,222.65726 L 632.33026,221.95015 L 640.81549,218.76817 L 645.23492,218.06107 L 653.3667,213.99519 L 658.49316,210.45967 L 663.79651,208.33835 L 667.33203,205.50992 L 669.45337,205.50992 L 672.81207,206.74736 L 674.93341,207.98479 L 677.40833,209.92934 L 679.5296,210.10611 L 679.70636,203.56538 L 681.12061,202.50471 L 683.06512,202.50471 L 685.36322,204.62604 L 685.89355,207.45445 L 687.3078,206.21703 L 687.83813,195.08009 L 688.72198,193.31233 L 688.19165,189.77679 L 683.06512,185.88771 L 671.04431,183.94316 L 666.27136,183.41283 L 657.60931,177.93275 L 654.60413,177.04887 L 651.59888,173.8669 L 650.53827,170.15459 L 648.41693,168.03326 L 625.78949,161.6693 L 618.36487,158.84087 L 609.86556,155.49689 L 609.8796,236.97617 L 604.22275,398.19652 L 599.9801,549.16382 L 598.91944,621.28871 L 752.00806,622.34937 L 754.83649,620.5816 L 802.91975,620.5816 L 802.91975,597.24708 L 799.38422,594.41865 L 794.78802,588.05469 L 791.25249,579.21585 L 790.19183,576.03387 L 786.30274,574.61966 L 774.98903,579.56941 L 754.12938,585.22626 L 743.52278,586.28692 L 712.41008,594.7722 L 706.04612,598.30774 L 703.57125,598.66129 L 703.57125,597.24708 L 712.41008,592.29733 L 718.06694,591.94378 L 745.29055,585.22626 L 756.95781,583.4585 L 762.61466,580.27652 L 770.03929,579.21585 L 783.12076,573.559 L 790.54538,573.559 L 793.37381,576.03387 L 802.91975,576.03387 L 802.91975,543.86052 L 822.36519,548.45671 L 822.71874,545.98184 L 830.49692,547.7496 L 842.16418,527.24351 L 835.44666,527.24351 L 835.80022,507.09096 L 855.24565,506.73741 L 870.802,481.98867 L 871.15556,465.37166 L 872.21622,461.83613 L 872.21622,434.25896 L 873.63043,428.24856 L 885.65124,412.33865 L 886.0048,402.08561 L 892.36876,402.08561 L 893.07587,399.61073 L 893.07587,391.83256 L 900.50049,391.83256 L 900.14693,376.98332 L 879.99439,361.07341 z "
       style="opacity:1;color:#000000;fill:#d7ffd9;fill-opacity:1;fill-rule:evenodd;stroke:#000000;stroke-width:3;stroke-linecap:butt;stroke-linejoin:round;marker:none;marker-start:none;marker-mid:none;marker-end:none;stroke-miterlimit:4;stroke-dasharray:none;stroke-dashoffset:0;stroke-opacity:1;visibility:visible;display:inline;overflow:visible"
       id="path5448" />
    <path
       d="M 342.17331,540.7388 L 329.51175,576.74097 L 260.23,770.546 L 325.5,772 L 414.5,775.5 L 482,778.5 L 556,782 L 596.5,783 L 599.79785,549.00956 L 342.17331,540.7388 z "
       style="opacity:1;color:#000000;fill:#ffd7df;fill-opacity:1;fill-rule:evenodd;stroke:#000000;stroke-width:3;stroke-linecap:butt;stroke-linejoin:round;marker:none;marker-start:none;marker-mid:none;marker-end:none;stroke-miterlimit:4;stroke-dasharray:none;stroke-dashoffset:0;stroke-opacity:1;visibility:visible;display:inline;overflow:visible"
       id="path6337" />
    <path
       d="M 267,1087 L 269,1047 L 366,1049.5 L 453.5,1046 L 467.5,1046 L 503,1045.5 L 607.5,1050.5 L 652,1051.5 L 651,1053 L 650,1057.5 L 650.5,1059.5 L 653,1059.5 L 662,1054.5 L 665.5,1054.5 L 668,1057.5 L 667.5,1063.5 L 661.5,1075 L 654,1080 L 651.5,1086 L 651.5,1092.5 L 654,1097 L 662.5,1104.5 L 667,1109.5 L 669,1117.5 L 669,1126 L 663.5,1134 L 658,1137 L 649.5,1144 L 643,1156.5 L 645,1163.5 L 650.5,1169.5 L 655,1172 L 655,1179 L 648.5,1194 L 256.5,1195 L 256.5,1151.5 L 260,1152 L 262.5,1087 L 267,1087 z "
       style="opacity:1;color:#000000;fill:#ffffc3;fill-opacity:1;fill-rule:evenodd;stroke:#000000;stroke-width:3;stroke-linecap:butt;stroke-linejoin:round;marker:none;marker-start:none;marker-mid:none;marker-end:none;stroke-miterlimit:4;stroke-dasharray:none;stroke-dashoffset:0;stroke-opacity:1;visibility:visible;display:inline;overflow:visible"
       id="path7212" />
    <path
       d="M 665.07942,1107.366 L 667,1109.5 L 669,1117.5 L 669,1126 L 663.5,1134 L 658,1137 L 649.5,1144 L 643,1156.5 L 645,1163.5 L 650.5,1169.5 L 655,1172 L 655,1179 L 648.5,1194 L 646,1211.5 L 644,1213.5 L 649,1217 L 660.5,1220.5 L 669,1220.5 L 673,1224.5 L 677,1239 L 676.5,1242.5 L 675,1245.5 L 671.5,1245.5 L 667,1242.5 L 663.5,1242.5 L 663,1246 L 662.5,1253 L 657.5,1261.5 L 660,1265.25 L 661.5,1275.5 L 661,1283.25 L 654.25,1299.5 L 652,1300 L 648.25,1294 L 645.5,1291.5 L 643.25,1291.5 L 640.25,1294.75 L 643.75,1299.75 L 643.75,1306 L 647.75,1312 L 648.75,1313 L 647.25,1319.75 L 644.75,1323.25 L 642.75,1323.25 L 638,1318.5 L 633.5,1315.75 L 632,1316 L 624.75,1324.75 L 617.5,1325 L 615,1327.5 L 609,1326.75 L 602.75,1322.5 L 600,1322.5 L 594,1326.5 L 586,1326 L 583.75,1328.5 L 583.75,1331.5 L 586.97296,1337.7563 L 853.5,1339.25 L 859,1326.5 L 917.8246,1180.6102 L 946.10887,1103.5355 L 665.07942,1107.366 z "
       style="opacity:1;color:#000000;fill:#d7ffd9;fill-opacity:1;fill-rule:evenodd;stroke:#000000;stroke-width:3;stroke-linecap:butt;stroke-linejoin:round;marker:none;marker-start:none;marker-mid:none;marker-end:none;stroke-miterlimit:4;stroke-dasharray:none;stroke-dashoffset:0;stroke-opacity:1;visibility:visible;display:inline;overflow:visible"
       id="path7216" />
    <path
       d="M 946.10887,1103.5355 L 917.8246,1180.6102 L 859,1326.5 L 992.5,1326.75 L 1192.5,1329.5 L 1190.5,1220 L 1184.5,1054.5 L 1184.4039,1054.7452 L 1055.0033,1057.5736 L 963.78654,1056.8665 L 946.10887,1103.5355 z "
       style="opacity:1;color:#000000;fill:#d7efff;fill-opacity:1;fill-rule:evenodd;stroke:#000000;stroke-width:3;stroke-linecap:butt;stroke-linejoin:round;marker:none;marker-start:none;marker-mid:none;marker-end:none;stroke-miterlimit:4;stroke-dasharray:none;stroke-dashoffset:0;stroke-opacity:1;visibility:visible;display:inline;overflow:visible"
       id="path7227" />
    <path
       d="M 1068.4375,786.03125 L 963.78125,1056.875 L 1055,1057.5625 L 1184.4063,1054.75 L 1183.875,861.5625 L 1183.8125,861.5625 L 1183.875,860.5625 L 1183.875,856.6875 L 1179.9688,856.6875 L 1179.9688,852.53125 L 1177.5313,851.46875 L 1180.3125,844.875 L 1147.25,831.28125 L 1159.0938,799.25 L 1180.6875,803.4375 L 1183.7188,799.71875 L 1183.6875,788.15625 L 1068.4375,786.03125 z "
       style="opacity:1;color:#000000;fill:#ffffc3;fill-opacity:1;fill-rule:evenodd;stroke:#000000;stroke-width:3;stroke-linecap:butt;stroke-linejoin:round;marker:none;marker-start:none;marker-mid:none;marker-end:none;stroke-miterlimit:4;stroke-dasharray:none;stroke-dashoffset:0;stroke-opacity:1;visibility:visible;display:inline;overflow:visible"
       id="path7243" />
    <path
       d="M 1183.6875,788.15625 L 1183.7188,799.71875 L 1186.9375,795.78125 L 1202.25,790.90625 L 1204.3438,792.3125 L 1206.0938,798.5625 L 1203.3125,802.75 L 1201.2188,802.75 L 1200.1563,808.3125 L 1204.3438,809.71875 L 1202.9375,811.78125 L 1204.3438,819.4375 L 1207.125,819.4375 L 1209.2188,813.53125 L 1212,812.5 L 1216.875,814.21875 L 1216.1875,817.375 L 1220.3438,822.59375 L 1219.3125,826.0625 L 1212.6875,823.625 L 1210.9688,826.75 L 1209.2188,829.53125 L 1209.2188,832.34375 L 1202.5938,835.8125 L 1196,840.6875 L 1183.8438,835.96875 L 1183.875,846.96875 L 1195.2813,850.4375 L 1197.7188,851.46875 L 1197.7188,859.8125 L 1192.8438,860.53125 L 1192.1563,856 L 1188.3438,855.65625 L 1187.2813,861.21875 L 1183.9063,861.5625 L 1184.5,1054.5 L 1435,1053.5 L 1433,924 L 1429.0625,789.03125 L 1282,789.59375 L 1183.6875,788.15625 z M 1183.9063,856.6875 L 1183.9063,860.21875 L 1184.1563,856.6875 L 1183.9063,856.6875 z "
       style="opacity:1;color:#000000;fill:#d7ffd9;fill-opacity:1;fill-rule:evenodd;stroke:#000000;stroke-width:3;stroke-linecap:butt;stroke-linejoin:round;marker:none;marker-start:none;marker-mid:none;marker-end:none;stroke-miterlimit:4;stroke-dasharray:none;stroke-dashoffset:0;stroke-opacity:1;visibility:visible;display:inline;overflow:visible"
       id="path7234" />
    <path
       d="M 598.91944,621.28871 L 752.00806,622.34937 L 754.83649,620.5816 L 754.5,638.25 L 760.25,643 L 763.75,647.5 L 771.25,675 L 779.5,710.75 L 784.75,725.75 L 811,770.5 L 815,773.75 L 827.75,783 L 806.75,782.5 L 806.75,768.5 L 780.5,768.5 L 780.25,763.25 L 779.25,765.5 L 776.75,765.25 L 767.5,782 L 596.49781,782.74891 L 598.91944,621.28871 z "
       style="opacity:1;color:#000000;fill:#ffffc3;fill-opacity:1;fill-rule:evenodd;stroke:#000000;stroke-width:3;stroke-linecap:butt;stroke-linejoin:round;marker:none;marker-start:none;marker-mid:none;marker-end:none;stroke-miterlimit:4;stroke-dasharray:none;stroke-dashoffset:0;stroke-opacity:1;visibility:visible;display:inline;overflow:visible"
       id="path5443" />
    <path
       d="M 652,1051.5 L 607.5,1050.5 L 503,1045.5 L 467.5,1046 L 453.5,1046 L 452.5,984.5 L 453.5,915.5 L 458.56349,777.47944 L 482,778.5 L 556,782 L 596.49781,782.74891 L 767.5,782 L 753.25,801.25 L 755.25,806 L 758.5,806 L 759.5,808.25 L 755.25,811 L 758.5,811.25 L 759,815.25 L 766.75,821.75 L 780.25,822.75 L 785,819.25 L 785,812.25 L 797,812.25 L 819.5,798.75 L 816.75,782.75 L 827.25,783 L 842.5,791.5 L 837.5,792.5 L 833.5,794.5 L 825.5,801 L 819.5,806.25 L 815.5,811.25 L 795.5,821.75 L 803.75,821 L 803.5,822 L 798.75,825 L 800,827.5 L 792.25,829 L 780.5,832.25 L 771.25,838 L 768.25,841 L 767.5,843.75 L 768.25,851 L 766.75,860.5 L 762.25,871.25 L 758.75,882.5 L 756.25,887 L 740.25,911 L 735.5,919.5 L 730.5,923 L 717,925.5 L 707,928.5 L 704,931.5 L 702.5,936 L 704,941.5 L 707.5,944.5 L 718.5,946.5 L 723,947.5 L 726.5,952.5 L 725.5,955.5 L 721,959 L 718,963.5 L 718,970.5 L 721,974.5 L 725,980 L 725,986 L 722.5,989.5 L 705,1009.5 L 701,1012 L 690,1010 L 663,1023.5 L 659,1027.5 L 652,1051.5 z "
       style="opacity:1;color:#000000;fill:#d7efff;fill-opacity:1;fill-rule:evenodd;stroke:#000000;stroke-width:3;stroke-linecap:butt;stroke-linejoin:round;marker:none;marker-start:none;marker-mid:none;marker-end:none;stroke-miterlimit:4;stroke-dasharray:none;stroke-dashoffset:0;stroke-opacity:1;visibility:visible;display:inline;overflow:visible"
       id="path8139" />
    <path
       d="M 946.10887,1103.5355 L 665.07942,1107.366 L 662.5,1104.5 L 654,1097 L 651.5,1092.5 L 651.5,1086 L 654,1080 L 661.5,1075 L 667.5,1063.5 L 668,1057.5 L 665.5,1054.5 L 662,1054.5 L 653,1059.5 L 650.5,1059.5 L 650,1057.5 L 651,1053 L 652,1051.5 L 659,1027.5 L 663,1023.5 L 690,1010 L 701,1012 L 705,1009.5 L 722.5,989.5 L 725,986 L 725,980 L 721,974.5 L 718,970.5 L 718,963.5 L 721,959 L 725.5,955.5 L 726.5,952.5 L 723,947.5 L 718.5,946.5 L 707.5,944.5 L 704,941.5 L 702.5,936 L 704,931.5 L 707,928.5 L 717,925.5 L 730.5,923 L 735.5,919.5 L 740.25,911 L 756.25,887 L 759.25,882.25 L 1036.6185,868.06898 L 946.10887,1103.5355 z "
       style="opacity:1;color:#000000;fill:#ffd7df;fill-opacity:1;fill-rule:evenodd;stroke:#000000;stroke-width:3;stroke-linecap:butt;stroke-linejoin:round;marker:none;marker-start:none;marker-mid:none;marker-end:none;stroke-miterlimit:4;stroke-dasharray:none;stroke-dashoffset:0;stroke-opacity:1;visibility:visible;display:inline;overflow:visible"
       id="path10781" />
    <path
       d="M 1115.75,787 L 1068.4383,786.04459 L 1036.6185,868.06898 L 759.25,882.25 L 762.25,871.25 L 766.75,860.5 L 768.25,851 L 767.5,843.75 L 768.25,841 L 771.25,838 L 780.5,832.25 L 792.25,829 L 800,827.5 L 802.25,832.5 L 802.75,835.75 L 798,848.75 L 826.5,848.75 L 831.25,838.25 L 835,838 L 836.5,834 L 829.75,833.75 L 834.75,820.5 L 828.5,820.25 L 829.75,818.25 L 853.25,817.75 L 860.25,804.75 L 868,810.5 L 878.5,816.5 L 907.25,829.25 L 911,822 L 909.25,820.75 L 909,815.5 L 913,815.5 L 925,783.25 L 927.25,783.5 L 932.5,770 L 941,769.75 L 944.25,760 L 950.75,760.25 L 952.75,758.5 L 955.25,761.5 L 959,752 L 972.75,752 L 967,754.5 L 969.75,756.75 L 974.75,758 L 981.5,755.25 L 983,755.75 L 989.75,752 L 1046.25,749.5 L 1046,736.5 L 1047.75,736.5 L 1057.5,709.5 L 1061,709.5 L 1067.25,696.75 L 1064,696.75 L 1079.75,656 L 1081.25,655.75 L 1081.75,659.25 L 1086.5,662.75 L 1090.5,668.75 L 1094.25,669.75 L 1095.5,671.25 L 1095.5,673.25 L 1090.75,673.25 L 1092.25,677 L 1091.25,678.5 L 1091.25,681 L 1093,681.75 L 1093,686.25 L 1096.75,693.25 L 1096.5,699.5 L 1101.75,706.5 L 1103.5,707.25 L 1106.5,707.25 L 1108.75,712.25 L 1112,712.5 L 1113.25,708.75 L 1115.75,708 L 1115.25,711 L 1114.75,712.25 L 1117.25,712.75 L 1115.75,787 z "
       style="opacity:1;color:#000000;fill:#d7ffd9;fill-opacity:1;fill-rule:evenodd;stroke:#000000;stroke-width:3;stroke-linecap:butt;stroke-linejoin:round;marker:none;marker-start:none;marker-mid:none;marker-end:none;stroke-miterlimit:4;stroke-dasharray:none;stroke-dashoffset:0;stroke-opacity:1;visibility:visible;display:inline;overflow:visible"
       id="path9904" />
    <path
       d="M 1425.1737,569.66991 L 1114.0467,569.31636 L 1114.0468,576.38745 L 1116.5216,578.8623 L 1114.7538,580.98364 L 1117.2288,584.87268 L 1117.9358,597.95416 L 1111.9254,601.48975 L 1112.2791,605.37878 L 1113.6932,605.73236 L 1112.6324,614.57117 L 1116.1681,618.10675 L 1114.4003,619.87451 L 1116.5216,621.99585 L 1114.7538,623.76355 L 1118.6429,628.00623 L 1117.9358,631.18817 L 1115.1074,632.60242 L 1113.3396,631.18817 L 1111.2183,631.18817 L 1110.1576,633.66309 L 1105.2079,630.12756 L 1102.3795,629.77399 L 1100.6117,626.23846 L 1096.7227,626.23846 L 1095.662,631.54176 L 1093.8942,631.54176 L 1094.2477,634.37018 L 1089.6516,641.79481 L 1083.9947,643.91613 L 1083.6411,646.391 L 1086.116,646.74455 L 1091.4193,646.74455 L 1092.1264,652.04785 L 1089.298,652.40141 L 1087.5302,652.04785 L 1086.4696,655.22983 L 1081.5198,655.22983 L 1081.25,655.75 L 1081.75,659.25 L 1086.5,662.75 L 1090.5,668.75 L 1094.25,669.75 L 1095.5,671.25 L 1095.5,673.25 L 1090.75,673.25 L 1092.25,677 L 1091.25,678.5 L 1091.25,681 L 1093,681.75 L 1093,686.25 L 1096.75,693.25 L 1096.5,699.5 L 1101.75,706.5 L 1103.5,707.25 L 1106.5,707.25 L 1108.75,712.25 L 1112,712.5 L 1113.25,708.75 L 1115.75,708 L 1115.25,711 L 1114.75,712.25 L 1117.25,712.75 L 1115.75,787 L 1183.6968,788.16591 L 1281.9846,789.58012 L 1429.057,789.04532 L 1428,738.5 L 1425.3268,569.2001"
       style="opacity:1;color:#000000;fill:#d7efff;fill-opacity:1;fill-rule:evenodd;stroke:#000000;stroke-width:3;stroke-linecap:butt;stroke-linejoin:round;marker:none;marker-start:none;marker-mid:none;marker-end:none;stroke-miterlimit:4;stroke-dasharray:none;stroke-dashoffset:0;stroke-opacity:1;visibility:visible;display:inline;overflow:visible"
       id="path11722" />
    <path
       d="M 1425,548.5 L 1425.1737,569.66991 L 1114.0467,569.31636 L 1113.6932,566.48792 L 1111.2183,566.48792 L 1109.097,563.65948 L 1109.4504,558.3562 L 1111.2183,556.58844 L 1109.8041,554.82068 L 1108.0363,553.40643 L 1108.3899,543.86053 L 1106.2686,541.38562 L 1105.2079,539.97144 L 1106.2686,536.43591 L 1104.1472,536.43591 L 1101.6724,533.961 L 1099.1975,533.961 L 1100.9653,531.48615 L 1100.9653,528.65771 L 1103.4401,528.3042 L 1105.915,529.71838 L 1108.3899,527.24353 L 1106.6221,525.82928 L 1106.6221,524.4151 L 1108.3899,523.00085 L 1106.2686,521.58667 L 1104.5009,522.64734 L 1103.0865,525.47577 L 1101.3188,527.59705 L 1097.4297,527.95062 L 1092.1263,527.59705 L 1090.7122,530.07196 L 1085.4089,529.71838 L 1085.0554,529.01129 L 1087.1768,526.88995 L 1087.1768,525.12219 L 1085.4089,523.00085 L 1085.4089,521.58667 L 1089.298,517.34399 L 1086.8231,513.4549 L 1084.7018,512.7478 L 1084.7018,510.27295 L 1085.0554,507.79807 L 1086.8231,505.67676 L 1086.4696,498.25214 L 1085.7625,497.54501 L 1085.7625,496.83792 L 1088.9445,494.71658 L 1088.9445,490.82751 L 1085.4089,487.29196 L 1079.3986,486.58487 L 1078.6914,485.87775 L 1080.4592,482.34222 L 1079.0449,478.09958 L 1083.6411,475.62469 L 1087.5302,474.56406 L 1091.0658,470.67496 L 1095.662,469.61429 L 1098.1368,467.13943 L 1100.9653,467.13943 L 1107.3292,460.77548 L 1107.3292,460.06836 L 1110.5112,456.53284 L 1110.5112,452.64374 L 1115.4609,447.694 L 1115.4609,443.8049 L 1113.6932,443.45135 L 1109.097,446.27979 L 1108.3899,448.04755 L 1103.7937,450.52243 L 1098.8439,450.52243 L 1091.7729,453.35086 L 1085.7625,455.47217 L 1081.1663,456.53284 L 1078.6914,455.11862 L 1077.6307,454.05795 L 1079.3986,452.29019 L 1094.955,446.98688 L 1097.0762,446.98688 L 1107.3292,441.68359 L 1108.3899,439.91583 L 1110.8647,439.56226 L 1116.1681,436.38028 L 1118.9965,433.55185 L 1118.9965,430.72342 L 1121.4714,428.24857 L 1125.714,422.59171 L 1133.4922,416.93484 L 1139.5026,414.10641 L 1144.4523,411.27798 L 1150.1093,407.38892 L 1152.5841,407.03534 L 1154.7054,408.44958 L 1158.5945,408.09601 L 1163.8978,405.9747 L 1166.7262,406.32825 L 1167.4333,407.03534 L 1170.2617,407.03534 L 1172.7366,406.32825 L 1180.8683,406.68179 L 1189.7072,403.14627 L 1197.4854,397.13586 L 1200.3138,397.13586 L 1203.1422,394.66098 L 1218.345,387.5899 L 1223.2947,387.5899 L 1227.1838,386.88281 L 1237.0833,382.99371 L 1247.3364,377.33688 L 1258.2965,377.33688 L 1261.8322,375.21555 L 1261.4785,372.38712 L 1262.8927,375.21555 L 1268.5496,374.50845 L 1271.7314,372.38712 L 1275.6206,372.03357 L 1287.6415,365.66962 L 1292.2375,363.19473 L 1295.4196,358.59854 L 1296.8337,358.59854 L 1298.9552,355.41656 L 1298.9552,353.6488 L 1302.8442,353.6488 L 1305.6727,350.82037 L 1308.8547,350.4668 L 1316.6328,347.99194 L 1319.4613,349.7597 L 1321.5826,347.28482 L 1325.4717,348.34549 L 1329.0072,349.7597 L 1333.9569,350.4668 L 1339.9674,350.4668 L 1343.1493,349.05261 L 1348.8062,349.05261 L 1357.9987,345.51706 L 1365.0696,340.56732 L 1367.5446,340.21375 L 1372.1407,335.97113 L 1379.2118,332.08203 L 1382.3938,332.08203 L 1385.5757,329.2536 L 1392.2933,329.2536 L 1396.8894,332.78915 L 1407.1425,333.1427 L 1412.0922,329.96072 L 1418.4562,330.66782 L 1422.5,329.5 L 1425,548.5 z "
       style="opacity:1;color:#000000;fill:#ffd7df;fill-opacity:1;fill-rule:evenodd;stroke:#000000;stroke-width:3;stroke-linecap:butt;stroke-linejoin:round;marker:none;marker-start:none;marker-mid:none;marker-end:none;stroke-miterlimit:4;stroke-dasharray:none;stroke-dashoffset:0;stroke-opacity:1;visibility:visible;display:inline;overflow:visible"
       id="path11713" />
    <path
       d="M 987.63614,432.15013 L 983.23199,429.30923 L 967.32208,417.99551 L 960.60455,411.98511 L 953.17993,403.14627 L 950.70508,403.14627 L 940.09845,397.13586 L 930.14486,387.86871 L 920.83695,400.01773 L 918.40041,404.36869 L 912.65714,412.02637 L 909.52445,422.81675 L 906.21772,434.8254 L 905.69561,449.27058 L 904.3033,454.3177 L 900.12638,457.9725 L 899.77831,462.32346 L 905.69561,468.24076 L 906.39176,487.03691 L 906.73984,495.39075 L 902.21484,509.66189 L 899.08215,521.84458 L 890.03216,529.15419 L 887.59562,535.41957 L 884.11485,539.94457 L 883.76678,547.60226 L 891.42446,558.74071 L 895.25331,563.96186 L 914.04945,562.91763 L 914.7456,574.05609 L 917.53022,572.66378 L 918.22637,577.53685 L 934.93405,575.10032 L 950.24943,571.96763 L 953.03404,574.40416 L 968.34942,574.40416 L 968.00134,583.10608 L 970.43788,584.15031 L 970.43788,593.54838 L 1018.1244,593.54838 L 1016.384,538.90034 L 1023.6936,514.88304 L 1029.6109,507.22536 L 1024.7378,504.78882 L 1023.6936,499.91575 L 1028.5667,492.60613 L 1028.2186,491.5619 L 1022.6494,491.90998 L 1018.8205,491.90998 L 1020.909,488.77729 L 1015.6879,486.68883 L 1013.9475,484.25229 L 1015.6879,478.68307 L 1012.9032,477.98691 L 1004.5494,477.63884 L 999.32825,482.16383 L 996.19555,480.77153 L 996.19555,472.76576 L 995.84748,465.80423 L 975.65903,464.76 L 965.21673,465.10807 L 965.91288,455.36193 L 970.43788,449.7927 L 976.70326,446.66001 L 982.27249,439.00232 L 983.31672,435.86963 L 987.63614,432.15013 z M 1037.9193,454.90007 L 1039.447,451.58307 L 1051.4678,452.29019 L 1059.246,453.35086 L 1067.024,452.99728 L 1074.8022,452.29019 L 1076.2166,453.70441 L 1076.2166,456.53284 L 1072.681,457.94705 L 1067.024,461.12903 L 1064.1957,466.07877 L 1062.0743,471.38208 L 1061.3673,479.16025 L 1063.135,483.40289 L 1064.9028,487.99908 L 1062.0743,491.53461 L 1066.317,492.24173 L 1066.317,496.1308 L 1060.6602,495.77725 L 1060.6602,497.54501 L 1065.6099,499.31281 L 1061.0137,504.26254 L 1064.9028,514.51556 L 1068.0848,516.28333 L 1067.3777,518.75824 L 1063.8422,517.34399 L 1060.3066,516.99048 L 1060.3066,518.40466 L 1065.6099,521.23309 L 1061.7208,523.35443 L 1061.7208,526.53638 L 1066.6707,525.12219 L 1067.024,523.70795 L 1069.1455,523.70795 L 1071.2668,528.3042 L 1071.6202,530.42548 L 1069.499,529.36481 L 1066.6707,530.07196 L 1066.6707,531.48615 L 1071.2668,531.48615 L 1072.681,532.19324 L 1073.7416,535.72876 L 1074.0952,546.33539 L 1076.9236,551.99225 L 1079.3986,553.76001 L 1085.0554,555.17419 L 1085.0554,556.94202 L 1080.8127,558.70978 L 1080.1056,573.20544 L 1082.5804,577.80164 L 1086.4696,578.15521 L 1087.8838,579.5694 L 1088.2373,582.39783 L 1087.1768,584.16559 L 1087.8838,587.70111 L 1091.0658,588.76178 L 1091.4193,586.99402 L 1092.48,586.99402 L 1092.8335,589.82245 L 1090.7122,590.52954 L 1090.3586,592.2973 L 1089.6516,593.71155 L 1090.0051,601.13617 L 1092.1263,606.43945 L 1091.4193,617.04608 L 1088.9445,622.70294 L 1086.8231,625.88489 L 1088.5909,628.3598 L 1092.1263,628.3598 L 1096.7227,626.23846 L 1095.662,631.54176 L 1093.8942,631.54176 L 1094.2477,634.37018 L 1089.6516,641.79481 L 1083.9947,643.91613 L 1083.6411,646.391 L 1086.116,646.74455 L 1091.4193,646.74455 L 1092.1264,652.04785 L 1089.298,652.40141 L 1087.5302,652.04785 L 1086.4696,655.22983 L 1081.5198,655.22983 L 1081.25,655.75 L 1079.75,656 L 1078.038,654.26327 L 1079.7609,651.06361 L 1080.0071,648.84847 L 1076.069,645.15656 L 1069.9158,657.95518 L 1029.3048,658.93969 L 1022.6594,644.6643 L 1028.8126,629.4044 L 1021.6749,618.82092 L 1021.6749,607.00681 L 1024.6284,605.03779 L 1027.0897,603.06877 L 1026.1052,598.8846 L 1028.8126,598.63848 L 1032.9967,596.91558 L 1033.9812,595.19269 L 1035.458,591.99304 L 1037.427,591.74691 L 1040.8728,592.73142 L 1043.8263,591.99304 L 1046.0415,589.53176 L 1048.0105,587.31662 L 1048.7489,586.33211 L 1049.9795,583.87083 L 1057.1172,582.88632 L 1058.3478,578.70216 L 1058.3478,574.76412 L 1061.7936,569.10319 L 1065.2394,566.64191 L 1070.9003,565.41128 L 1073.1155,563.68839 L 1076.8074,562.21162 L 1080.7454,562.21162 L 1080.7454,561.47324 L 1073.1155,561.22711 L 1069.6697,564.42677 L 1063.7626,565.41128 L 1059.5785,569.34932 L 1056.6249,575.01025 L 1056.6249,580.17892 L 1052.933,582.14794 L 1048.5027,582.88632 L 1043.0879,591.00853 L 1037.9193,591.25465 L 1034.2274,591.00853 L 1031.52,596.1772 L 1027.0897,597.90009 L 1024.6284,598.63848 L 1024.6284,603.06877 L 1021.1826,605.28392 L 1020.6903,592.48529 L 1017.9829,538.82952 L 1025.3668,517.17031 L 1026.3513,514.70903 L 1032.2583,506.3407 L 1025.859,503.14104 L 1026.3513,499.44913 L 1030.7816,492.80369 L 1033.9812,492.80369 L 1034.2274,486.15825 L 1034.4735,479.75894 L 1050.2256,480.00507 L 1051.4563,476.31316 L 1038.1654,476.06703 L 1037.9193,454.90007 z "
       style="opacity:1;color:#000000;fill:#ffffc3;fill-opacity:1;fill-rule:evenodd;stroke:#000000;stroke-width:3;stroke-linecap:butt;stroke-linejoin:round;marker:none;marker-start:none;marker-mid:none;marker-end:none;stroke-miterlimit:4;stroke-dasharray:none;stroke-dashoffset:0;stroke-opacity:1;visibility:visible;display:inline;overflow:visible"
       id="path11760" />
    <path
       d="M 930.14486,387.86871 L 928.88379,386.69461 L 926.30988,382.10983 L 923.30469,381.5795 L 920.65302,380.34207 L 912.34454,375.92264 L 908.98578,375.39233 L 900.67725,367.96771 L 895.55072,363.01797 L 884.59058,355.77011 L 883.80716,355.21243 L 879.99439,361.07341 L 900.14693,376.98332 L 900.50049,391.83256 L 893.07587,391.83256 L 893.07587,399.61073 L 892.36876,402.08561 L 886.0048,402.08561 L 885.65124,412.33865 L 873.63043,428.24856 L 872.21622,434.25896 L 872.21622,461.83613 L 871.15556,465.37166 L 870.802,481.98867 L 855.24565,506.73741 L 835.80022,507.09096 L 835.44666,527.24351 L 842.16418,527.24351 L 830.49692,547.7496 L 822.71874,545.98184 L 822.36519,548.45671 L 802.91975,543.86052 L 802.91975,576.03387 L 793.37381,576.03387 L 790.54538,573.559 L 783.12076,573.559 L 770.03929,579.21585 L 762.61466,580.27652 L 756.95781,583.4585 L 745.29055,585.22626 L 718.06694,591.94378 L 712.41008,592.29733 L 703.57125,597.24708 L 703.57125,598.66129 L 706.04612,598.30774 L 712.41008,594.7722 L 743.52278,586.28692 L 754.12938,585.22626 L 774.98903,579.56941 L 786.30274,574.61966 L 790.19183,576.03387 L 791.25249,579.21585 L 794.78802,588.05469 L 799.38422,594.41865 L 802.91975,597.24708 L 802.91975,620.5816 L 754.83649,620.5816 L 754.5,638.25 L 760.25,643 L 763.75,647.5 L 771.25,675 L 779.5,710.75 L 784.75,725.75 L 811,770.5 L 815,773.75 L 827.75,783 L 806.75,782.5 L 806.75,768.5 L 780.5,768.5 L 780.25,763.25 L 779.25,765.5 L 776.75,765.25 L 767.5,782 L 753.25,801.25 L 755.25,806 L 758.5,806 L 759.5,808.25 L 755.25,811 L 758.5,811.25 L 759,815.25 L 766.75,821.75 L 780.25,822.75 L 785,819.25 L 785,812.25 L 797,812.25 L 819.5,798.75 L 816.75,782.75 L 827.25,783 L 842.5,791.5 L 837.5,792.5 L 833.5,794.5 L 825.5,801 L 819.5,806.25 L 815.5,811.25 L 795.5,821.75 L 803.75,821 L 803.5,822 L 798.75,825 L 800,827.5 L 802.25,832.5 L 802.75,835.75 L 798,848.75 L 826.5,848.75 L 831.25,838.25 L 835,838 L 836.5,834 L 829.75,833.75 L 834.75,820.5 L 828.5,820.25 L 829.75,818.25 L 853.25,817.75 L 860.25,804.75 L 868,810.5 L 878.5,816.5 L 907.25,829.25 L 911,822 L 909.25,820.75 L 909,815.5 L 913,815.5 L 925,783.25 L 927.25,783.5 L 932.5,770 L 941,769.75 L 944.25,760 L 950.75,760.25 L 952.75,758.5 L 955.25,761.5 L 959,752 L 972.75,752 L 967,754.5 L 969.75,756.75 L 974.75,758 L 981.5,755.25 L 983,755.75 L 989.75,752 L 1046.25,749.5 L 1046,736.5 L 1047.75,736.5 L 1057.5,709.5 L 1061,709.5 L 1067.25,696.75 L 1064,696.75 L 1079.75,656 L 1078.038,654.26327 L 1079.7609,651.06361 L 1080.0071,648.84847 L 1076.069,645.15656 L 1069.9158,657.95518 L 1029.3048,658.93969 L 1022.6594,644.6643 L 1028.8126,629.4044 L 1021.6749,618.82092 L 1021.6749,607.00681 L 1024.6284,605.03779 L 1027.0897,603.06877 L 1026.1052,598.8846 L 1028.8126,598.63848 L 1032.9967,596.91558 L 1033.9812,595.19269 L 1035.458,591.99304 L 1037.427,591.74691 L 1040.8728,592.73142 L 1043.8263,591.99304 L 1046.0415,589.53176 L 1048.0105,587.31662 L 1048.7489,586.33211 L 1049.9795,583.87083 L 1057.1172,582.88632 L 1058.3478,578.70216 L 1058.3478,574.76412 L 1061.7936,569.10319 L 1065.2394,566.64191 L 1070.9003,565.41128 L 1073.1155,563.68839 L 1076.8074,562.21162 L 1080.7454,562.21162 L 1080.7454,561.47324 L 1073.1155,561.22711 L 1069.6697,564.42677 L 1063.7626,565.41128 L 1059.5785,569.34932 L 1056.6249,575.01025 L 1056.6249,580.17892 L 1052.933,582.14794 L 1048.5027,582.88632 L 1043.0879,591.00853 L 1037.9193,591.25465 L 1034.2274,591.00853 L 1031.52,596.1772 L 1027.0897,597.90009 L 1024.6284,598.63848 L 1024.6284,603.06877 L 1021.1826,605.28392 L 1020.6903,592.48529 L 1017.9829,538.82952 L 1025.3668,517.17031 L 1026.3513,514.70903 L 1032.2583,506.3407 L 1025.859,503.14104 L 1026.3513,499.44913 L 1030.7816,492.80369 L 1033.9812,492.80369 L 1034.2274,486.15825 L 1034.4735,479.75894 L 1050.2256,480.00507 L 1051.4563,476.31316 L 1038.1654,476.06703 L 1037.9193,454.90007 L 1039.447,451.58307 L 1021.0622,446.63333 L 1003.031,439.91583 L 987.63614,432.15013 L 983.31672,435.86963 L 982.27249,439.00232 L 976.70326,446.66001 L 970.43788,449.7927 L 965.91288,455.36193 L 965.21673,465.10807 L 975.65903,464.76 L 995.84748,465.80423 L 996.19555,472.76576 L 996.19555,480.77153 L 999.32825,482.16383 L 1004.5494,477.63884 L 1012.9032,477.98691 L 1015.6879,478.68307 L 1013.9475,484.25229 L 1015.6879,486.68883 L 1020.909,488.77729 L 1018.8205,491.90998 L 1022.6494,491.90998 L 1028.2186,491.5619 L 1028.5667,492.60613 L 1023.6936,499.91575 L 1024.7378,504.78882 L 1029.6109,507.22536 L 1023.6936,514.88304 L 1016.384,538.90034 L 1018.1244,593.54838 L 970.43788,593.54838 L 970.43788,584.15031 L 968.00134,583.10608 L 968.34942,574.40416 L 953.03404,574.40416 L 950.24943,571.96763 L 934.93405,575.10032 L 918.22637,577.53685 L 917.53022,572.66378 L 914.7456,574.05609 L 914.04945,562.91763 L 895.25331,563.96186 L 891.42446,558.74071 L 883.76678,547.60226 L 884.11485,539.94457 L 887.59562,535.41957 L 890.03216,529.15419 L 899.08215,521.84458 L 902.21484,509.66189 L 906.73984,495.39075 L 906.39176,487.03691 L 905.69561,468.24076 L 899.77831,462.32346 L 900.12638,457.9725 L 904.3033,454.3177 L 905.69561,449.27058 L 906.21772,434.8254 L 909.52445,422.81675 L 912.65714,412.02637 L 918.40041,404.36869 L 920.83695,400.01773 L 930.14486,387.86871"
       style="opacity:1;color:#000000;fill:#e0e0e0;fill-opacity:1;fill-rule:evenodd;stroke:#000000;stroke-width:3;stroke-linecap:butt;stroke-linejoin:round;marker:none;marker-start:none;marker-mid:none;marker-end:none;stroke-miterlimit:4;stroke-dasharray:none;stroke-dashoffset:0;stroke-opacity:1;visibility:visible;display:inline;overflow:visible"
       id="path7257" />
    <path
       d="M 133.40105,498.46462 L 133.40105,514.70903 L 158.01379,514.21678 L 160.96732,511.7555 L 161.45958,523.56962 L 156.53703,525.53864 L 157.02928,521.10834 L 148.1687,521.10834 L 147.18419,532.92246 L 161.95183,533.41471 L 161.95183,542.2753 L 229.883,541.29079 L 229.883,511.26325 L 250.5577,515.20129 L 250.06544,498.95688 L 133.40105,498.46462 z "
       style="opacity:1;color:#000000;fill:#ffffff;fill-opacity:0.68627451;fill-rule:evenodd;stroke:#000000;stroke-width:3;stroke-linecap:butt;stroke-linejoin:round;marker:none;marker-start:none;marker-mid:none;marker-end:none;stroke-miterlimit:4;stroke-dasharray:none;stroke-dashoffset:0;stroke-opacity:1;visibility:visible;display:inline;overflow:visible"
       id="path12648" />
    <path
       d="M 445.98286,571.81059 L 445.98286,576.48701 L 449.42864,576.48701 L 450.65928,579.93279 L 462.22727,581.65569 L 469.11883,582.88632 L 469.36496,603.56102 L 464.93467,601.34588 L 458.28923,600.11524 L 458.28923,603.06877 L 450.65928,602.33039 L 450.41315,599.37686 L 439.58354,599.13073 L 439.58354,613.65225 L 510.71436,615.12901 L 511.69887,602.57652 L 519.32882,602.57652 L 519.32882,589.53176 L 512.19113,589.03951 L 512.43726,570.57995 L 493.9777,569.84157 L 493.9777,573.77961 L 445.98286,571.81059 z "
       style="opacity:1;color:#000000;fill:#ffffff;fill-opacity:0.68627451;fill-rule:evenodd;stroke:#000000;stroke-width:3;stroke-linecap:butt;stroke-linejoin:round;marker:none;marker-start:none;marker-mid:none;marker-end:none;stroke-miterlimit:4;stroke-dasharray:none;stroke-dashoffset:0;stroke-opacity:1;visibility:visible;display:inline;overflow:visible"
       id="path12650" />
    <path
       d="M 491.02417,295.90177 L 491.2703,308.94652 L 489.79354,310.42329 L 489.79354,325.68318 L 516.62142,325.43706 L 517.11368,318.05324 L 542.4648,317.80711 L 542.4648,312.14618 L 538.03451,312.14618 L 537.78838,295.16339 L 547.14122,295.16338 L 547.14122,286.05667 L 550.34088,281.13412 L 546.89509,280.888 L 550.83313,273.25805 L 550.83313,267.59712 L 544.18769,265.38197 L 540.24965,265.38197 L 539.7574,249.87594 L 537.54225,249.87594 L 537.78838,255.53687 L 532.6197,255.53687 L 532.6197,271.53516 L 514.89853,271.53516 L 514.89853,268.08937 L 512.19113,268.08937 L 512.19113,264.15133 L 509.97598,264.15133 L 509.48373,251.35271 L 491.02417,252.58335 L 491.2703,263.41295 L 490.03966,263.41295 L 490.28579,271.28903 L 490.28579,273.01192 L 478.22555,273.25805 L 478.22555,276.94996 L 470.5956,274.73481 L 470.5956,277.19609 L 486.84001,282.85702 L 487.08613,294.17888 L 491.51643,294.17888 L 491.02417,295.90177 z "
       style="opacity:1;color:#000000;fill:#ffffff;fill-opacity:0.68627451;fill-rule:evenodd;stroke:#000000;stroke-width:3;stroke-linecap:butt;stroke-linejoin:round;marker:none;marker-start:none;marker-mid:none;marker-end:none;stroke-miterlimit:4;stroke-dasharray:none;stroke-dashoffset:0;stroke-opacity:1;visibility:visible;display:inline;overflow:visible"
       id="path12652" />
    <path
       d="M 598.58185,1066.0344 L 607.93469,1066.0344 L 604.98116,1072.4337 L 622.21008,1072.4337 L 621.22557,1074.4027 L 628.60939,1074.895 L 632.54743,1072.926 L 633.03968,1075.8795 L 622.70233,1092.6162 L 616.30302,1097.5387 L 613.84175,1103.4458 L 613.34949,1105.9071 L 608.9192,1105.9071 L 606.95018,1103.4458 L 595.62832,1105.4148 L 578.89166,1114.7676 L 577.90715,1119.1979 L 573.96911,1123.6282 L 570.52332,1127.074 L 568.5543,1130.0275 L 563.63176,1131.0121 L 565.60078,1122.6437 L 569.04656,1122.6437 L 569.04656,1114.7676 L 574.95362,1113.7831 L 575.44587,1104.9225 L 578.89166,1102.4613 L 578.89166,1095.0775 L 568.06205,1080.3098 L 577.41489,1080.8021 L 577.90715,1070.4647 L 598.08959,1070.4647 L 598.58185,1066.0344 z "
       style="opacity:1;color:#000000;fill:#ffffff;fill-opacity:0.68627451;fill-rule:evenodd;stroke:#000000;stroke-width:3;stroke-linecap:butt;stroke-linejoin:round;marker:none;marker-start:none;marker-mid:none;marker-end:none;stroke-miterlimit:4;stroke-dasharray:none;stroke-dashoffset:0;stroke-opacity:1;visibility:visible;display:inline;overflow:visible"
       id="path12654" />
    <path
       d="M 918.54747,1326.4372 L 916.57845,1315.1154 L 914.11718,1316.0999 L 914.60944,1267.8589 L 918.54747,1268.8434 L 921.00875,1266.8744 L 926.42355,1269.3357 L 929.37708,1266.8744 L 934.29963,1266.8744 L 941.68345,1261.4596 L 944.14472,1261.4596 L 949.06727,1265.8899 L 953.49757,1265.8899 L 953.2951,1264.8143 L 955.47058,1264.3792 L 959.99558,1264.2922 L 963.47634,1261.1595 L 963.47634,1256.6345 L 970.43788,1256.6345 L 966.26096,1265.3364 L 974.26672,1265.3364 L 976.00711,1256.6345 L 990.9744,1253.8499 L 990.9744,1258.0268 L 999.67632,1256.2864 L 998.63209,1287.2653 L 993.41094,1301.5364 L 987.84171,1301.5364 L 987.84171,1305.3653 L 985.40518,1305.7133 L 985.0571,1306.0614 L 981.57633,1311.6306 L 980.88018,1314.4153 L 979.48787,1315.1114 L 979.48787,1321.7249 L 977.74749,1323.8133 L 977.74749,1326.5979 L 918.54747,1326.4372 z "
       style="opacity:1;color:#000000;fill:#ffffff;fill-opacity:0.68627451;fill-rule:evenodd;stroke:#000000;stroke-width:3;stroke-linecap:butt;stroke-linejoin:round;marker:none;marker-start:none;marker-mid:none;marker-end:none;stroke-miterlimit:4;stroke-dasharray:none;stroke-dashoffset:0;stroke-opacity:1;visibility:visible;display:inline;overflow:visible"
       id="path12656" />
    <path
       d="M 1147.2608,831.28478 L 1159.0955,799.26172 L 1180.6762,803.43864 L 1186.9416,795.78095 L 1202.257,790.90788 L 1204.3454,792.30019 L 1206.0858,798.56557 L 1203.3012,802.74249 L 1201.2127,802.74249 L 1200.1685,808.31171 L 1204.3454,809.70402 L 1202.9531,811.79248 L 1204.3454,819.45017 L 1207.13,819.45017 L 1209.2185,813.53286 L 1212.0031,812.48863 L 1216.8762,814.22902 L 1216.18,817.36171 L 1220.357,822.58286 L 1219.3127,826.06363 L 1212.6993,823.62709 L 1210.9589,826.75978 L 1209.2185,829.54439 L 1209.2185,832.32901 L 1202.605,835.80977 L 1195.9916,840.68285 L 1183.4608,835.80977 L 1183.8089,846.94823 L 1195.2954,850.429 L 1197.732,851.47323 L 1197.732,859.82707 L 1192.8589,860.52322 L 1192.1627,855.99822 L 1188.3339,855.65015 L 1187.2897,861.21937 L 1183.8089,861.56745 L 1184.157,856.69438 L 1179.9801,856.69438 L 1179.9801,852.51746 L 1177.5435,851.47323 L 1180.3281,844.85977 L 1147.2608,831.28478 z "
       style="opacity:1;color:#000000;fill:#ffd7df;fill-opacity:1;fill-rule:evenodd;stroke:#000000;stroke-width:3;stroke-linecap:butt;stroke-linejoin:round;marker:none;marker-start:none;marker-mid:none;marker-end:none;stroke-miterlimit:4;stroke-dasharray:none;stroke-dashoffset:0;stroke-opacity:1;visibility:visible;display:inline;overflow:visible"
       id="path12658" />
    <path
       d="M 1138.2109,867.83283 L 1138.2109,907.1655 L 1087.3917,907.1655 L 1103.7512,878.97129 L 1104.0993,867.48476 L 1138.2109,867.83283 z "
       style="opacity:1;color:#000000;fill:#ffffff;fill-opacity:0.68627451;fill-rule:evenodd;stroke:#000000;stroke-width:3;stroke-linecap:butt;stroke-linejoin:round;marker:none;marker-start:none;marker-mid:none;marker-end:none;stroke-miterlimit:4;stroke-dasharray:none;stroke-dashoffset:0;stroke-opacity:1;visibility:visible;display:inline;overflow:visible"
       id="path12680" />
    <path
       d="M 1255.8608,833.02516 L 1315.3819,833.02516 L 1315.3819,840.68285 L 1301.1108,840.68285 L 1301.8069,895.67897 L 1279.8781,895.33089 L 1279.8781,885.58474 L 1255.8608,885.93282 L 1252.38,884.88859 L 1250.6396,883.14821 L 1250.6396,867.83283 L 1249.2473,858.78284 L 1250.9877,852.51746 L 1255.5127,848.34054 L 1255.8608,841.72708 L 1248.2031,843.81554 L 1246.1146,841.72708 L 1247.855,837.55016 L 1255.8608,839.98669 L 1255.8608,833.02516 z "
       style="opacity:1;color:#000000;fill:#ffffff;fill-opacity:0.68627451;fill-rule:evenodd;stroke:#000000;stroke-width:3;stroke-linecap:butt;stroke-linejoin:round;marker:none;marker-start:none;marker-mid:none;marker-end:none;stroke-miterlimit:4;stroke-dasharray:none;stroke-dashoffset:0;stroke-opacity:1;visibility:visible;display:inline;overflow:visible"
       id="path12682" />
    <path
       d="M 1304.9396,569.53109 L 1304.9396,558.74071 L 1306.68,558.04456 L 1306.68,548.29841 L 1304.9396,548.29841 L 1304.5915,553.17148 L 1303.1992,553.17148 L 1302.8511,558.04456 L 1298.6742,559.78494 L 1298.3261,563.26571 L 1292.4088,565.00609 L 1292.4088,550.03879 L 1290.6685,550.03879 L 1290.6685,546.9061 L 1288.9281,546.9061 L 1289.2761,526.71765 L 1285.4473,523.23689 L 1285.4473,502.35228 L 1288.58,504.09267 L 1288.58,493.30229 L 1292.7569,493.30229 L 1292.7569,496.0869 L 1314.6857,495.73882 L 1315.3819,488.42921 L 1328.2607,488.42921 L 1327.9127,467.54461 L 1354.3665,467.89269 L 1370.378,466.50038 L 1370.378,493.30229 L 1328.6088,501.65613 L 1329.305,518.36381 L 1336.9627,526.36958 L 1336.9627,546.55803 L 1319.2107,546.9061 L 1318.8627,569.18301 L 1304.9396,569.53109 z "
       style="opacity:1;color:#000000;fill:#ffffff;fill-opacity:0.68627451;fill-rule:evenodd;stroke:#000000;stroke-width:3;stroke-linecap:butt;stroke-linejoin:round;marker:none;marker-start:none;marker-mid:none;marker-end:none;stroke-miterlimit:4;stroke-dasharray:none;stroke-dashoffset:0;stroke-opacity:1;visibility:visible;display:inline;overflow:visible"
       id="path12684" />
    <path
       d="M 301.78251,805.17902 L 312.57289,805.17902 L 312.92097,815.27325 L 312.92097,831.63285 L 317.09789,830.24055 L 325.45173,825.71555 L 329.62865,825.71555 L 329.97672,820.14632 L 333.10942,820.14632 L 333.10942,825.71555 L 342.15941,826.06363 L 348.42479,823.27901 L 348.42479,837.89823 L 345.64018,838.24631 L 345.64018,840.33477 L 332.76134,847.64438 L 333.10942,860.52322 L 320.57865,860.52322 L 324.75557,863.30783 L 329.97672,863.30783 L 329.97672,866.09245 L 322.66711,868.87706 L 320.57865,871.3136 L 320.92673,872.35783 L 311.87674,873.75014 L 304.9152,877.57898 L 293.42867,881.7559 L 292.03636,880.36359 L 292.03636,850.77707 L 291.68829,842.07516 L 300.3902,834.06939 L 303.87097,832.67708 L 311.87674,832.32901 L 312.22481,815.27325 L 301.78251,815.27325 L 301.78251,805.17902 z "
       style="opacity:1;color:#000000;fill:#ffffff;fill-opacity:0.68627451;fill-rule:evenodd;stroke:#000000;stroke-width:3;stroke-linecap:butt;stroke-linejoin:round;marker:none;marker-start:none;marker-mid:none;marker-end:none;stroke-miterlimit:4;stroke-dasharray:none;stroke-dashoffset:0;stroke-opacity:1;visibility:visible;display:inline;overflow:visible"
       id="path12686" />
    <path
       d="M 73,62.999999 L 74,213 L 68,467 L 66,759 L 264,760 L 192.5,968.5 L 166.5,1039.5 L 269,1047 L 267,1087 L 262.5,1087 L 260,1152 L 256.5,1151.5 L 256.5,1195 L 648.5,1194 L 646,1211.5 L 644,1213.5 L 649,1217 L 660.5,1220.5 L 669,1220.5 L 673,1224.5 L 677,1239 L 676.5,1242.5 L 675,1245.5 L 671.5,1245.5 L 667,1242.5 L 663.5,1242.5 L 663,1246 L 662.5,1253 L 657.5,1261.5 L 660,1265.25 L 661.5,1275.5 L 661,1283.25 L 654.25,1299.5 L 652,1300 L 648.25,1294 L 645.5,1291.5 L 643.25,1291.5 L 640.25,1294.75 L 643.75,1299.75 L 643.75,1306 L 647.75,1312 L 648.75,1313 L 647.25,1319.75 L 644.75,1323.25 L 642.75,1323.25 L 638,1318.5 L 633.5,1315.75 L 632,1316 L 624.75,1324.75 L 617.5,1325 L 615,1327.5 L 609,1326.75 L 602.75,1322.5 L 600,1322.5 L 594,1326.5 L 586,1326 L 583.75,1328.5 L 583.75,1331.5 L 586.97297,1337.7563 L 853.5,1339.25 L 859,1326.5 L 992.5,1326.75 L 1192.5,1329.5 L 1190.5,1220 L 1184.5,1054.5 L 1435,1053.5 L 1433,924 L 1428,738.5 L 1425,548.5 L 1422.5,329.5 L 1418.4562,330.66782 L 1412.0922,329.96071 L 1407.1425,333.14269 L 1396.8894,332.78914 L 1392.2933,329.25361 L 1385.5757,329.25361 L 1382.3938,332.08203 L 1379.2118,332.08203 L 1372.1407,335.97112 L 1367.5445,340.21376 L 1365.0696,340.56732 L 1357.9986,345.51706 L 1348.8062,349.0526 L 1343.1493,349.0526 L 1339.9674,350.46681 L 1333.9569,350.46681 L 1329.0072,349.7597 L 1325.4717,348.34549 L 1321.5826,347.28483 L 1319.4613,349.7597 L 1316.6328,347.99194 L 1308.8547,350.46681 L 1305.6727,350.82036 L 1302.8442,353.64879 L 1298.9552,353.64879 L 1298.9552,355.41656 L 1296.8338,358.59854 L 1295.4196,358.59854 L 1292.2376,363.19473 L 1287.6415,365.66961 L 1275.6206,372.03357 L 1271.7315,372.38712 L 1268.5496,374.50844 L 1262.8927,375.21555 L 1261.4785,372.38712 L 1261.8321,375.21555 L 1258.2965,377.33687 L 1247.3364,377.33687 L 1237.0833,382.99372 L 1227.1838,386.88281 L 1223.2947,387.58992 L 1218.345,387.58992 L 1203.1422,394.66098 L 1200.3138,397.13586 L 1197.4853,397.13586 L 1189.7072,403.14627 L 1180.8683,406.6818 L 1172.7366,406.32825 L 1170.2617,407.03535 L 1167.4333,407.03535 L 1166.7262,406.32825 L 1163.8978,405.97469 L 1158.5945,408.09601 L 1154.7054,408.44957 L 1152.5841,407.03535 L 1150.1092,407.38891 L 1144.4523,411.27799 L 1139.5026,414.10642 L 1133.4922,416.93485 L 1125.714,422.5917 L 1121.4714,428.24856 L 1118.9965,430.72343 L 1118.9965,433.55186 L 1116.1681,436.38028 L 1110.8648,439.56227 L 1108.3899,439.91582 L 1107.3292,441.68359 L 1097.0762,446.98689 L 1094.9549,446.98689 L 1079.3985,452.29019 L 1077.6307,454.05795 L 1078.6914,455.11861 L 1081.1663,456.53283 L 1085.7625,455.47217 L 1091.7729,453.35085 L 1098.8439,450.52242 L 1103.7937,450.52242 L 1108.3899,448.04755 L 1109.097,446.27978 L 1113.6932,443.45135 L 1115.4609,443.80491 L 1115.4609,447.69399 L 1110.5112,452.64374 L 1110.5112,456.53283 L 1107.3292,460.06836 L 1107.3292,460.77547 L 1100.9653,467.13943 L 1098.1368,467.13943 L 1095.662,469.6143 L 1091.0658,470.67496 L 1087.5302,474.56405 L 1083.6411,475.62471 L 1079.0449,478.09959 L 1080.4592,482.34223 L 1078.6914,485.87776 L 1079.3985,486.58487 L 1085.4089,487.29197 L 1088.9444,490.82751 L 1088.9444,494.71659 L 1085.7625,496.83791 L 1085.7625,497.54502 L 1086.4696,498.25213 L 1086.8231,505.67675 L 1085.0554,507.79807 L 1084.7018,510.27294 L 1084.7018,512.74782 L 1086.8231,513.45492 L 1089.298,517.34401 L 1085.4089,521.58665 L 1085.4089,523.00087 L 1087.1767,525.12219 L 1087.1767,526.88995 L 1085.0554,529.01127 L 1085.4089,529.71838 L 1090.7122,530.07193 L 1092.1264,527.59706 L 1097.4297,527.95061 L 1101.3188,527.59706 L 1103.0866,525.47574 L 1104.5008,522.64731 L 1106.2686,521.58665 L 1108.3899,523.00087 L 1106.6221,524.41508 L 1106.6221,525.82929 L 1108.3899,527.24351 L 1105.915,529.71838 L 1103.4401,528.30417 L 1100.9653,528.65772 L 1100.9653,531.48615 L 1099.1975,533.96102 L 1101.6724,533.96102 L 1104.1472,536.43589 L 1106.2686,536.43589 L 1105.2079,539.97143 L 1106.2686,541.38564 L 1108.3899,543.86052 L 1108.0363,553.40646 L 1109.8041,554.82067 L 1111.2183,556.58844 L 1109.4505,558.3562 L 1109.097,563.65951 L 1111.2183,566.48793 L 1113.6932,566.48793 L 1114.0467,576.38743 L 1116.5216,578.8623 L 1114.7538,580.98362 L 1117.2287,584.87271 L 1117.9358,597.95418 L 1111.9254,601.48972 L 1112.279,605.37881 L 1113.6932,605.73236 L 1112.6325,614.57119 L 1116.1681,618.10673 L 1114.4003,619.87449 L 1116.5216,621.99582 L 1114.7538,623.76358 L 1118.6429,628.00622 L 1117.9358,631.1882 L 1115.1074,632.60242 L 1113.3396,631.1882 L 1111.2183,631.1882 L 1110.1576,633.66308 L 1105.2079,630.12754 L 1102.3795,629.77399 L 1100.6117,626.23846 L 1096.7226,626.23846 L 1092.1264,628.35978 L 1088.5909,628.35978 L 1086.8231,625.8849 L 1088.9444,622.70292 L 1091.4193,617.04607 L 1092.1264,606.43947 L 1090.0051,601.13617 L 1089.6516,593.71154 L 1090.3587,592.29733 L 1090.7122,590.52956 L 1092.8335,589.82246 L 1092.48,586.99403 L 1091.4193,586.99403 L 1091.0658,588.7618 L 1087.8838,587.70114 L 1087.1767,584.1656 L 1088.2373,582.39784 L 1087.8838,579.56941 L 1086.4696,578.15519 L 1082.5805,577.80164 L 1080.1056,573.20545 L 1080.8127,558.70976 L 1085.0554,556.94199 L 1085.0554,555.17422 L 1079.3985,553.76001 L 1076.9236,551.99224 L 1074.0952,546.33539 L 1073.7416,535.72879 L 1072.681,532.19325 L 1071.2668,531.48615 L 1066.6706,531.48615 L 1066.6706,530.07193 L 1069.499,529.36483 L 1071.6203,530.42549 L 1071.2668,528.30417 L 1069.1455,523.70797 L 1067.0241,523.70797 L 1066.6706,525.12219 L 1061.7208,526.5364 L 1061.7208,523.35442 L 1065.6099,521.2331 L 1060.3066,518.40467 L 1060.3066,516.99046 L 1063.8422,517.34401 L 1067.3777,518.75823 L 1068.0848,516.28335 L 1064.9028,514.51558 L 1061.0137,504.26254 L 1065.6099,499.31279 L 1060.6602,497.54502 L 1060.6602,495.77725 L 1066.317,496.13081 L 1066.317,492.24172 L 1062.0744,491.53461 L 1064.9028,487.99908 L 1063.135,483.40289 L 1061.3673,479.16025 L 1062.0744,471.38207 L 1064.1957,466.07877 L 1067.0241,461.12902 L 1072.681,457.94704 L 1076.2165,456.53283 L 1076.2165,453.7044 L 1074.8023,452.29019 L 1067.0241,452.99729 L 1059.246,453.35085 L 1051.4678,452.29019 L 1039.447,451.58308 L 1021.0622,446.63333 L 1003.031,439.91582 L 983.23198,429.30922 L 967.32208,417.99551 L 960.60456,411.9851 L 953.17994,403.14627 L 950.70507,403.14627 L 940.09847,397.13586 L 928.88379,386.69461 L 926.30989,382.10984 L 923.30468,381.57951 L 920.65303,380.34207 L 912.34453,375.92265 L 908.98577,375.39232 L 900.67726,367.9677 L 895.55074,363.01796 L 884.59058,355.77011 L 874.16076,348.34549 L 873.1001,346.40095 L 866.73614,342.86541 L 863.37738,341.27442 L 858.60441,336.855 L 845.69971,332.25881 L 838.62864,329.60716 L 833.85567,326.77873 L 826.60783,324.12708 L 815.11734,318.47023 L 817.41544,314.58114 L 815.29412,314.58114 L 813.34958,316.87924 L 804.8643,312.6366 L 798.85389,308.0404 L 787.3634,298.49446 L 777.28713,288.59497 L 774.28193,284.88266 L 762.96822,274.27605 L 750.41707,262.25524 L 742.46212,255.18417 L 735.21428,250.4112 L 730.61808,245.63823 L 722.83991,241.04204 L 716.29917,235.56196 L 706.93001,231.49609 L 698.97505,226.01602 L 695.26274,227.96056 L 694.90919,230.61221 L 698.6215,228.13734 L 704.27836,232.02642 L 708.34422,234.67807 L 707.81389,236.62262 L 704.45513,236.44584 L 700.21249,240.51171 L 696.85373,241.21881 L 695.26274,241.74914 L 693.14142,239.98138 L 692.78787,237.5065 L 689.07556,235.56196 L 685.7168,237.32973 L 680.23672,242.98658 L 675.81731,246.34534 L 669.98368,251.29508 L 666.62492,252.17897 L 666.62492,249.88087 L 673.51921,244.75435 L 678.46896,239.62782 L 678.29218,234.67807 L 677.23152,232.73353 L 679.52962,232.73353 L 679.35284,230.43543 L 676.52441,227.60701 L 670.51401,226.72312 L 669.8069,225.48569 L 669.8069,224.6018 L 674.57987,223.36437 L 674.22632,221.5966 L 671.39789,220.71272 L 665.38748,219.82883 L 664.15005,218.23784 L 668.92302,217.53074 L 669.27657,215.40942 L 665.91781,215.40942 L 662.38228,216.2933 L 660.43773,215.40942 L 656.01832,217.35396 L 654.78088,219.47528 L 651.5989,219.47528 L 644.70461,222.83404 L 639.04775,227.78378 L 637.45676,229.37477 L 630.91603,229.37477 L 626.31983,230.78899 L 623.13785,232.2032 L 617.481,233.08708 L 615.71323,236.44584 L 615.35968,239.98138 L 617.12744,241.57237 L 616.42034,242.98658 L 610.58671,243.34013 L 611.11704,237.15295 L 611.29381,231.14254 L 614.82935,228.13734 L 620.83976,226.19279 L 626.85016,224.77858 L 628.79471,223.71792 L 628.79471,225.13213 L 627.02694,226.8999 L 627.55727,228.13734 L 632.68379,227.07668 L 637.81032,223.54114 L 637.98709,222.30371 L 631.97669,222.65726 L 632.33024,221.95015 L 640.81552,218.76817 L 645.23494,218.06107 L 653.36667,213.9952 L 658.49319,210.45967 L 663.79649,208.33835 L 667.33203,205.50992 L 669.45335,205.50992 L 672.8121,206.74736 L 674.93342,207.98479 L 677.4083,209.92934 L 679.52962,210.10611 L 679.70639,203.56538 L 681.12061,202.50472 L 683.06515,202.50472 L 685.36325,204.62604 L 685.89358,207.45446 L 687.30779,206.21703 L 687.83812,195.0801 L 688.72201,193.31233 L 688.19168,189.77679 L 683.06515,185.88771 L 671.04434,183.94316 L 666.27137,183.41283 L 657.60931,177.93276 L 654.6041,177.04887 L 651.5989,173.86689 L 650.53824,170.15458 L 648.41692,168.03326 L 625.7895,161.6693 L 618.36488,158.84087 L 607.5815,154.59823 L 604.39952,153.89113 L 598.91944,150.88592 L 597.32845,149.11815 L 595.20713,148.94138 L 593.26259,147.17361 L 587.60574,140.10254 L 586.89863,136.56701 L 584.24698,135.68313 L 578.59012,135.8599 L 578.05979,136.21346 L 575.58492,136.21346 L 574.34748,135.50635 L 570.10484,134.79924 L 568.51385,134.79924 L 566.21576,136.56701 L 561.79634,136.56701 L 553.13428,139.57221 L 544.11867,141.1632 L 534.7495,141.51676 L 527.14811,139.39544 L 502.9297,139.92577 L 497.27284,138.68833 L 486.31269,134.44569 L 476.05964,134.26891 L 471.10989,132.50114 L 467.75114,131.97081 L 462.62461,129.84949 L 458.2052,128.78883 L 453.96255,129.31916 L 449.01281,130.20305 L 435.75455,130.20305 L 430.98158,127.37462 L 428.68349,125.78363 L 426.03184,123.48553 L 416.83945,122.77843 L 412.77358,121.71777 L 401.81343,115.35381 L 393.32815,116.41447 L 385.19642,116.59124 L 358.85669,112.17182 L 345.24489,111.46472 L 333.57762,110.0505 L 312.01087,105.98464 L 305.47013,104.57043 L 299.99005,103.68654 L 300.16683,101.38845 L 295.0403,100.50456 C 295.0403,100.50456 286.7318,98.206466 285.67114,98.029689 C 284.61048,97.852913 274.53421,92.903165 274.53421,92.903165 L 274.00388,90.428291 L 263.39728,88.130194 L 244.12862,88.837301 L 233.34524,87.776641 L 228.04194,85.655321 L 219.55666,85.478544 L 213.01592,83.710777 L 208.77328,80.528796 L 207.35906,78.584253 L 199.05056,77.170039 L 196.39891,74.518389 L 187.56007,73.104175 L 179.07479,70.629301 L 173.77149,68.507981 L 171.82695,66.386661 L 167.40753,64.442117 L 163.34167,63.911787 L 158.21514,60.906583 L 154.85639,58.962039 L 150.26019,57.194273 L 146.01755,56.310389 L 140.53747,56.133612 L 135.0574,58.431709 L 127.27922,58.254933 L 123.03658,57.017496 L 118.08683,54.719399 L 115.96551,53.128409 L 111.72287,52.774855 L 109.248,54.542622 L 105.71246,54.542622 L 95.812969,60.0227 L 89.979338,61.61369 L 83.96893,62.851127 L 73,62.999999 z "
       style="opacity:1;color:#000000;fill:none;fill-opacity:1;fill-rule:evenodd;stroke:#000000;stroke-width:5;stroke-linecap:butt;stroke-linejoin:round;marker:none;marker-start:none;marker-mid:none;marker-end:none;stroke-miterlimit:4;stroke-dasharray:none;stroke-dashoffset:0;stroke-opacity:1;visibility:visible;display:inline;overflow:visible"
       id="path1894" />
    <text
       x="914.80005"
       y="707.05243"
       style="font-size:40px;font-style:normal;font-variant:normal;font-weight:bold;font-stretch:normal;text-align:center;line-height:100%;writing-mode:lr-tb;text-anchor:middle;fill:#000000;fill-opacity:1;stroke:none;stroke-width:1px;stroke-linecap:butt;stroke-linejoin:miter;stroke-opacity:1;font-family:DejaVu Sans Condensed"
       id="text17053"
       xml:space="preserve"><tspan
         x="914.80005"
         y="707.05243"
         id="tspan17055">ROCHESTER</tspan></text>
    <text
       x="1274.0153"
       y="662.4986"
       style="font-size:34px;font-style:normal;font-variant:normal;font-weight:bold;font-stretch:normal;text-align:center;line-height:100%;writing-mode:lr-tb;text-anchor:middle;fill:#000000;fill-opacity:1;stroke:none;stroke-width:1px;stroke-linecap:butt;stroke-linejoin:miter;stroke-opacity:1;font-family:DejaVu Sans Condensed"
       id="text17057"
       xml:space="preserve"><tspan
         x="1274.0153"
         y="662.4986"
         id="tspan17059">Penfield</tspan></text>
    <text
       x="1314.2146"
       y="1024.2557"
       style="font-size:34px;font-style:normal;font-variant:normal;font-weight:bold;font-stretch:normal;text-align:center;line-height:100%;writing-mode:lr-tb;text-anchor:middle;fill:#000000;fill-opacity:1;stroke:none;stroke-width:1px;stroke-linecap:butt;stroke-linejoin:miter;stroke-opacity:1;font-family:DejaVu Sans Condensed"
       id="text17061"
       xml:space="preserve"><tspan
         x="1314.2146"
         y="1024.2557"
         id="tspan17063">Perinton</tspan></text>
    <text
       x="1609.5067"
       y="1230.8193"
       style="font-size:12px;font-style:normal;font-weight:normal;fill:#000000;fill-opacity:1;stroke:none;stroke-width:1px;stroke-linecap:butt;stroke-linejoin:miter;stroke-opacity:1;font-family:Bitstream Vera Sans"
       id="text17065"
       xml:space="preserve"><tspan
         x="1609.5067"
         y="1230.8193"
         id="tspan17067" /></text>
    <text
       x="1085.8762"
       y="1027.0404"
       style="font-size:34px;font-style:normal;font-variant:normal;font-weight:bold;font-stretch:normal;text-align:center;line-height:100%;writing-mode:lr-tb;text-anchor:middle;fill:#000000;fill-opacity:1;stroke:none;stroke-width:1px;stroke-linecap:butt;stroke-linejoin:miter;stroke-opacity:1;font-family:DejaVu Sans Condensed"
       id="text17069"
       xml:space="preserve"><tspan
         x="1085.8762"
         y="1027.0404"
         id="tspan17071">Pittsford</tspan></text>
    <text
       x="1063.5994"
       y="1141.2095"
       style="font-size:34px;font-style:normal;font-variant:normal;font-weight:bold;font-stretch:normal;text-align:center;line-height:100%;writing-mode:lr-tb;text-anchor:middle;fill:#000000;fill-opacity:1;stroke:none;stroke-width:1px;stroke-linecap:butt;stroke-linejoin:miter;stroke-opacity:1;font-family:DejaVu Sans Condensed"
       id="text17073"
       xml:space="preserve"><tspan
         x="1063.5994"
         y="1141.2095"
         id="tspan17075">Mendon</tspan></text>
    <text
       x="785.138"
       y="1177.4095"
       style="font-size:34px;font-style:normal;font-variant:normal;font-weight:bold;font-stretch:normal;text-align:center;line-height:100%;writing-mode:lr-tb;text-anchor:middle;fill:#000000;fill-opacity:1;stroke:none;stroke-width:1px;stroke-linecap:butt;stroke-linejoin:miter;stroke-opacity:1;font-family:DejaVu Sans Condensed"
       id="text17077"
       xml:space="preserve"><tspan
         x="785.138"
         y="1177.4095"
         id="tspan17079">Rush</tspan></text>
    <text
       x="389.72287"
       y="1169.0557"
       style="font-size:34px;font-style:normal;font-variant:normal;font-weight:bold;font-stretch:normal;text-align:center;line-height:100%;writing-mode:lr-tb;text-anchor:middle;fill:#000000;fill-opacity:1;stroke:none;stroke-width:1px;stroke-linecap:butt;stroke-linejoin:miter;stroke-opacity:1;font-family:DejaVu Sans Condensed"
       id="text17081"
       xml:space="preserve"><tspan
         x="389.72287"
         y="1169.0557"
         id="tspan17083">Wheatland</tspan></text>
    <text
       x="325.67676"
       y="999.19421"
       style="font-size:34px;font-style:normal;font-variant:normal;font-weight:bold;font-stretch:normal;text-align:center;line-height:100%;writing-mode:lr-tb;text-anchor:middle;fill:#000000;fill-opacity:1;stroke:none;stroke-width:1px;stroke-linecap:butt;stroke-linejoin:miter;stroke-opacity:1;font-family:DejaVu Sans Condensed"
       id="text17085"
       xml:space="preserve"><tspan
         x="325.67676"
         y="999.19421"
         id="tspan17087">Riga</tspan></text>
    <text
       x="584.64587"
       y="929.57886"
       style="font-size:34px;font-style:normal;font-variant:normal;font-weight:bold;font-stretch:normal;text-align:center;line-height:100%;writing-mode:lr-tb;text-anchor:middle;fill:#000000;fill-opacity:1;stroke:none;stroke-width:1px;stroke-linecap:butt;stroke-linejoin:miter;stroke-opacity:1;font-family:DejaVu Sans Condensed"
       id="text17089"
       xml:space="preserve"><tspan
         x="584.64587"
         y="929.57886"
         id="tspan17091">Chili</tspan></text>
    <text
       x="851.96875"
       y="999.19421"
       style="font-size:34px;font-style:normal;font-variant:normal;font-weight:bold;font-stretch:normal;text-align:center;line-height:100%;writing-mode:lr-tb;text-anchor:middle;fill:#000000;fill-opacity:1;stroke:none;stroke-width:1px;stroke-linecap:butt;stroke-linejoin:miter;stroke-opacity:1;font-family:DejaVu Sans Condensed"
       id="text17093"
       xml:space="preserve"><tspan
         x="851.96875"
         y="999.19421"
         id="tspan17095">Henrietta</tspan></text>
    <text
       x="924.36871"
       y="857.17889"
       style="font-size:34px;font-style:normal;font-variant:normal;font-weight:bold;font-stretch:normal;text-align:center;line-height:100%;writing-mode:lr-tb;text-anchor:middle;fill:#000000;fill-opacity:1;stroke:none;stroke-width:1px;stroke-linecap:butt;stroke-linejoin:miter;stroke-opacity:1;font-family:DejaVu Sans Condensed"
       id="text17097"
       xml:space="preserve"><tspan
         x="924.36871"
         y="857.17889"
         id="tspan17099">Brighton</tspan></text>
    <text
       x="690.46118"
       y="715.16364"
       style="font-size:34px;font-style:normal;font-variant:normal;font-weight:bold;font-stretch:normal;text-align:center;line-height:100%;writing-mode:lr-tb;text-anchor:middle;fill:#000000;fill-opacity:1;stroke:none;stroke-width:1px;stroke-linecap:butt;stroke-linejoin:miter;stroke-opacity:1;font-family:DejaVu Sans Condensed"
       id="text17101"
       xml:space="preserve"><tspan
         x="690.46118"
         y="715.16364"
         id="tspan17103">Gates</tspan></text>
    <text
       x="721.09192"
       y="428.34842"
       style="font-size:34px;font-style:normal;font-variant:normal;font-weight:bold;font-stretch:normal;text-align:center;line-height:100%;writing-mode:lr-tb;text-anchor:middle;fill:#000000;fill-opacity:1;stroke:none;stroke-width:1px;stroke-linecap:butt;stroke-linejoin:miter;stroke-opacity:1;font-family:DejaVu Sans Condensed"
       id="text17105"
       xml:space="preserve"><tspan
         x="721.09192"
         y="428.34842"
         id="tspan17107">Greece</tspan></text>
    <text
       x="1305.8607"
       y="433.91763"
       style="font-size:34px;font-style:normal;font-variant:normal;font-weight:bold;font-stretch:normal;text-align:center;line-height:100%;writing-mode:lr-tb;text-anchor:middle;fill:#000000;fill-opacity:1;stroke:none;stroke-width:1px;stroke-linecap:butt;stroke-linejoin:miter;stroke-opacity:1;font-family:DejaVu Sans Condensed"
       id="text17109"
       xml:space="preserve"><tspan
         x="1305.8607"
         y="433.91763"
         id="tspan17111">Webster</tspan></text>
    <text
       x="253.27679"
       y="213.93315"
       style="font-size:34px;font-style:normal;font-variant:normal;font-weight:bold;font-stretch:normal;text-align:center;line-height:100%;writing-mode:lr-tb;text-anchor:middle;fill:#000000;fill-opacity:1;stroke:none;stroke-width:1px;stroke-linecap:butt;stroke-linejoin:miter;stroke-opacity:1;font-family:DejaVu Sans Condensed"
       id="text17113"
       xml:space="preserve"><tspan
         x="253.27679"
         y="213.93315"
         id="tspan17115">Hamlin</tspan></text>
    <text
       x="222.64606"
       y="417.20999"
       style="font-size:34px;font-style:normal;font-variant:normal;font-weight:bold;font-stretch:normal;text-align:center;line-height:100%;writing-mode:lr-tb;text-anchor:middle;fill:#000000;fill-opacity:1;stroke:none;stroke-width:1px;stroke-linecap:butt;stroke-linejoin:miter;stroke-opacity:1;font-family:DejaVu Sans Condensed"
       id="text17117"
       xml:space="preserve"><tspan
         x="222.64606"
         y="417.20999"
         id="tspan17119">Clarkson</tspan></text>
    <text
       x="172.52301"
       y="717.94824"
       style="font-size:34px;font-style:normal;font-variant:normal;font-weight:bold;font-stretch:normal;text-align:center;line-height:100%;writing-mode:lr-tb;text-anchor:middle;fill:#000000;fill-opacity:1;stroke:none;stroke-width:1px;stroke-linecap:butt;stroke-linejoin:miter;stroke-opacity:1;font-family:DejaVu Sans Condensed"
       id="text17121"
       xml:space="preserve"><tspan
         x="172.52301"
         y="717.94824"
         id="tspan17123">Sweden</tspan></text>
    <text
       x="392.63052"
       y="679.46582"
       style="font-size:12px;font-style:normal;font-weight:normal;fill:#000000;fill-opacity:1;stroke:none;stroke-width:1px;stroke-linecap:butt;stroke-linejoin:miter;stroke-opacity:1;font-family:Bitstream Vera Sans"
       id="text17125"
       xml:space="preserve"><tspan
         x="392.63052"
         y="679.46582"
         id="tspan17127" /></text>
    <text
       x="392.50748"
       y="731.87128"
       style="font-size:34px;font-style:normal;font-variant:normal;font-weight:bold;font-stretch:normal;text-align:center;line-height:100%;writing-mode:lr-tb;text-anchor:middle;fill:#000000;fill-opacity:1;stroke:none;stroke-width:1px;stroke-linecap:butt;stroke-linejoin:miter;stroke-opacity:1;font-family:DejaVu Sans Condensed"
       id="text17129"
       xml:space="preserve"><tspan
         x="392.50748"
         y="731.87128"
         id="tspan17131">Ogden</tspan></text>
    <text
       x="489.96893"
       y="472.90222"
       style="font-size:34px;font-style:normal;font-variant:normal;font-weight:bold;font-stretch:normal;text-align:center;line-height:100%;writing-mode:lr-tb;text-anchor:middle;fill:#000000;fill-opacity:1;stroke:none;stroke-width:1px;stroke-linecap:butt;stroke-linejoin:miter;stroke-opacity:1;font-family:DejaVu Sans Condensed"
       id="text17133"
       xml:space="preserve"><tspan
         x="489.96893"
         y="472.90222"
         id="tspan17135">Parma</tspan></text>
    <text
       x="1205.5303"
       y="778.46411"
       style="font-size:34px;font-style:normal;font-variant:normal;font-weight:bold;font-stretch:normal;text-align:center;line-height:100%;writing-mode:lr-tb;text-anchor:middle;fill:#000000;fill-opacity:1;stroke:none;stroke-width:1px;stroke-linecap:butt;stroke-linejoin:miter;stroke-opacity:1;font-family:DejaVu Sans Condensed"
       id="text17137"
       xml:space="preserve"><tspan
         x="1205.5303"
         y="778.46411"
         id="tspan17139">East Rochester</tspan></text>
    <text
       x="1275.2349"
       y="540.28076"
       style="font-size:25.5px;font-style:normal;font-variant:normal;font-weight:bold;font-stretch:normal;text-align:end;line-height:100%;writing-mode:lr-tb;text-anchor:end;fill:#000000;fill-opacity:1;stroke:none;stroke-width:1px;stroke-linecap:butt;stroke-linejoin:miter;stroke-opacity:1;font-family:DejaVu Sans Condensed"
       id="text1577"
       xml:space="preserve"><tspan
         x="1275.2349"
         y="540.28076"
         id="tspan1579">Webster</tspan></text>
    <text
       x="1312.7395"
       y="878.32605"
       style="font-size:25.5px;font-style:normal;font-variant:normal;font-weight:bold;font-stretch:normal;text-align:start;line-height:100%;writing-mode:lr-tb;text-anchor:start;fill:#000000;fill-opacity:1;stroke:none;stroke-width:1px;stroke-linecap:butt;stroke-linejoin:miter;stroke-opacity:1;font-family:DejaVu Sans Condensed"
       id="text1581"
       xml:space="preserve"><tspan
         x="1312.7395"
         y="878.32605"
         id="tspan1583">Fairport</tspan></text>
    <text
       x="1094.0446"
       y="939.90057"
       style="font-size:25.5px;font-style:normal;font-variant:normal;font-weight:bold;font-stretch:normal;text-align:center;line-height:100%;writing-mode:lr-tb;text-anchor:middle;fill:#000000;fill-opacity:1;stroke:none;stroke-width:1px;stroke-linecap:butt;stroke-linejoin:miter;stroke-opacity:1;font-family:DejaVu Sans Condensed"
       id="text1585"
       xml:space="preserve"><tspan
         x="1094.0446"
         y="939.90057"
         id="tspan1587">Pittsford</tspan></text>
    <text
       x="1016.0754"
       y="1279.6234"
       style="font-size:25.5px;font-style:normal;font-variant:normal;font-weight:bold;font-stretch:normal;text-align:start;line-height:100%;writing-mode:lr-tb;text-anchor:start;fill:#000000;fill-opacity:1;stroke:none;stroke-width:1px;stroke-linecap:butt;stroke-linejoin:miter;stroke-opacity:1;font-family:DejaVu Sans Condensed"
       id="text1589"
       xml:space="preserve"><tspan
         x="1016.0754"
         y="1279.6234"
         id="tspan1591">Honeoye</tspan><tspan
         x="1016.0754"
         y="1305.1234"
         id="tspan1593">Falls</tspan></text>
    <text
       x="558.10919"
       y="1103.8798"
       style="font-size:25.5px;font-style:normal;font-variant:normal;font-weight:bold;font-stretch:normal;text-align:end;line-height:100%;writing-mode:lr-tb;text-anchor:end;fill:#000000;fill-opacity:1;stroke:none;stroke-width:1px;stroke-linecap:butt;stroke-linejoin:miter;stroke-opacity:1;font-family:DejaVu Sans Condensed"
       id="text1595"
       xml:space="preserve"><tspan
         x="558.10919"
         y="1103.8798"
         id="tspan1597">Scottsville</tspan></text>
    <text
       x="297.64502"
       y="903.70062"
       style="font-size:25.5px;font-style:normal;font-variant:normal;font-weight:bold;font-stretch:normal;text-align:start;line-height:100%;writing-mode:lr-tb;text-anchor:start;fill:#000000;fill-opacity:1;stroke:none;stroke-width:1px;stroke-linecap:butt;stroke-linejoin:miter;stroke-opacity:1;font-family:DejaVu Sans Condensed"
       id="text1599"
       xml:space="preserve"><tspan
         x="297.64502"
         y="903.70062"
         id="tspan1601">Churchville</tspan></text>
    <text
       x="528.98944"
       y="232.29562"
       style="font-size:25.5px;font-style:normal;font-variant:normal;font-weight:bold;font-stretch:normal;text-align:center;line-height:100%;writing-mode:lr-tb;text-anchor:middle;fill:#000000;fill-opacity:1;stroke:none;stroke-width:1px;stroke-linecap:butt;stroke-linejoin:miter;stroke-opacity:1;font-family:DejaVu Sans Condensed"
       id="text1603"
       xml:space="preserve"><tspan
         x="528.98944"
         y="232.29562"
         id="tspan1605">Hilton</tspan></text>
    <text
       x="191.9827"
       y="572.01855"
       style="font-size:25.5px;font-style:normal;font-variant:normal;font-weight:bold;font-stretch:normal;text-align:center;line-height:100%;writing-mode:lr-tb;text-anchor:middle;fill:#000000;fill-opacity:1;stroke:none;stroke-width:1px;stroke-linecap:butt;stroke-linejoin:miter;stroke-opacity:1;font-family:DejaVu Sans Condensed"
       id="text1607"
       xml:space="preserve"><tspan
         x="191.9827"
         y="572.01855"
         id="tspan1609">Brockport</tspan></text>
    <text
       x="473.2287"
       y="644.41846"
       style="font-size:25.5px;font-style:normal;font-variant:normal;font-weight:bold;font-stretch:normal;text-align:center;line-height:100%;writing-mode:lr-tb;text-anchor:middle;fill:#000000;fill-opacity:1;stroke:none;stroke-width:1px;stroke-linecap:butt;stroke-linejoin:miter;stroke-opacity:1;font-family:DejaVu Sans Condensed"
       id="text1611"
       xml:space="preserve"><tspan
         x="473.2287"
         y="644.41846"
         id="tspan1613">Spencerport</tspan></text>
    <text
       x="941.08337"
       y="383.04901"
       style="font-size:34px;font-style:normal;font-variant:normal;font-weight:bold;font-stretch:normal;text-align:start;line-height:100%;writing-mode:lr-tb;text-anchor:start;fill:#000000;fill-opacity:1;stroke:none;stroke-width:1px;stroke-linecap:butt;stroke-linejoin:miter;stroke-opacity:1;font-family:DejaVu Sans Condensed"
       id="text1615"
       xml:space="preserve"><tspan
         x="941.08337"
         y="383.04901"
         id="tspan1617">Irondequoit</tspan></text>
    <path
       d="M 938.41482,439.98905 L 994.10709,389.866"
       style="opacity:1;color:#000000;fill:none;fill-opacity:1;fill-rule:evenodd;stroke:#000000;stroke-width:3;stroke-linecap:butt;stroke-linejoin:round;marker:none;marker-start:none;marker-mid:none;marker-end:none;stroke-miterlimit:4;stroke-dasharray:none;stroke-dashoffset:0;stroke-opacity:1;visibility:visible;display:inline;overflow:visible"
       id="path1621" />
  </g>
</svg>
